<svg width="420" height="482" viewBox="0 0 420 482" fill="none" xmlns="http://www.w3.org/2000/svg">
<path d="M0 18C0 8.05887 8.05888 0 18 0H402C411.941 0 420 8.05888 420 18V464C420 473.941 411.941 482 402 482H18C8.05889 482 0 473.941 0 464V18Z" fill="#F5F5F5"/>
<path d="M20 32C20 25.3726 25.3726 20 32 20H157C163.627 20 169 25.3726 169 32V56C169 62.6274 163.627 68 157 68H32C25.3726 68 20 62.6274 20 56V32Z" fill="#0083F0"/>
<path d="M60.3125 51.4062H58.5938V43.75H55.7188V47.9844H49V38.3594H50.75V41.875H54.0156V38.3594H55.7188V42.3281H58.5938V37.2656H60.3125V51.4062ZM54.0156 46.5938V43.2344H50.75V46.5938H54.0156ZM75.3319 46.3438H62.4256V44.9688H75.3319V46.3438ZM74.0037 51.1094H64.0506V47.1562H65.7537V49.7031H74.0037V51.1094ZM73.8944 43.9375H64.0819V37.75H73.785V39.0938H65.8162V40.1875H73.4412V41.4844H65.8162V42.6094H73.8944V43.9375ZM87.9137 45.0625H83.7262V48.2969H89.3512V49.7188H76.445V48.2969H82.0075V45.0625H78.0075V38.3125H87.8044V39.7031H79.7419V43.6875H87.9137V45.0625ZM99.4056 46.4531C99.4056 47.0729 99.5515 47.6667 99.8431 48.2344C100.14 48.7969 100.577 49.263 101.156 49.6328C101.739 49.237 102.184 48.7526 102.492 48.1797C102.799 47.6016 102.958 47.026 102.968 46.4531V45.875H104.671V46.4531C104.666 46.9583 104.762 47.4375 104.96 47.8906C105.158 48.3438 105.46 48.7448 105.867 49.0938C106.278 49.4427 106.786 49.7135 107.39 49.9062L106.546 51.1719C105.874 50.9479 105.307 50.6224 104.843 50.1953C104.38 49.7682 104.02 49.2656 103.765 48.6875C103.525 49.2708 103.189 49.7891 102.757 50.2422C102.33 50.7005 101.812 51.0521 101.202 51.2969C100.557 51.0625 100.015 50.724 99.5775 50.2812C99.14 49.8385 98.8041 49.3229 98.5697 48.7344C98.3145 49.2917 97.9577 49.7786 97.4994 50.1953C97.0462 50.6172 96.4994 50.9427 95.8587 51.1719L94.9994 49.9062C95.5879 49.6979 96.0853 49.4141 96.4916 49.0547C96.8978 48.6901 97.2025 48.2839 97.4056 47.8359C97.6087 47.388 97.7129 46.9271 97.7181 46.4531V45.875H99.4056V46.4531ZM106.156 45.2812H104.406V37.2812H106.156V45.2812ZM98.4525 38.0312C99.1712 38.0312 99.8197 38.1745 100.398 38.4609C100.976 38.7422 101.429 39.138 101.757 39.6484C102.085 40.1589 102.249 40.7396 102.249 41.3906C102.249 42.0365 102.085 42.6146 101.757 43.125C101.429 43.6302 100.976 44.026 100.398 44.3125C99.8197 44.5938 99.1712 44.7344 98.4525 44.7344C97.7285 44.7344 97.0775 44.5938 96.4994 44.3125C95.9212 44.026 95.4655 43.6302 95.1322 43.125C94.8041 42.6146 94.64 42.0365 94.64 41.3906C94.64 40.7396 94.8041 40.1589 95.1322 39.6484C95.4655 39.138 95.9212 38.7422 96.4994 38.4609C97.0775 38.1745 97.7285 38.0312 98.4525 38.0312ZM98.4525 39.5C98.041 39.5 97.6739 39.5781 97.3509 39.7344C97.0332 39.8906 96.7832 40.112 96.6009 40.3984C96.4239 40.6797 96.3379 41.0104 96.3431 41.3906C96.3379 41.7708 96.4239 42.1042 96.6009 42.3906C96.7832 42.6771 97.0332 42.901 97.3509 43.0625C97.6739 43.2188 98.041 43.2969 98.4525 43.2969C98.8587 43.2969 99.2181 43.2188 99.5306 43.0625C99.8483 42.9062 100.096 42.6849 100.273 42.3984C100.455 42.1068 100.546 41.7708 100.546 41.3906C100.546 41.0104 100.458 40.6797 100.281 40.3984C100.104 40.112 99.8561 39.8906 99.5384 39.7344C99.2207 39.5781 98.8587 39.5 98.4525 39.5ZM112.237 38.2969C112.873 38.2969 113.446 38.4661 113.956 38.8047C114.467 39.1432 114.883 39.6276 115.206 40.2578C115.529 40.8828 115.73 41.6198 115.808 42.4688H118.503V37.2656H120.222V51.4062H118.503V43.875H115.831C115.769 44.7708 115.579 45.5521 115.261 46.2188C114.943 46.8802 114.524 47.3906 114.003 47.75C113.482 48.1042 112.894 48.2812 112.237 48.2812C111.529 48.2812 110.902 48.0781 110.355 47.6719C109.808 47.2656 109.381 46.6849 109.073 45.9297C108.766 45.1745 108.612 44.2917 108.612 43.2812C108.612 42.2812 108.766 41.4062 109.073 40.6562C109.381 39.901 109.808 39.3203 110.355 38.9141C110.907 38.5026 111.534 38.2969 112.237 38.2969ZM112.237 39.8594C111.847 39.8594 111.503 39.9974 111.206 40.2734C110.909 40.5443 110.68 40.9375 110.519 41.4531C110.357 41.9635 110.279 42.5729 110.284 43.2812C110.279 43.9948 110.357 44.6094 110.519 45.125C110.68 45.6406 110.909 46.0365 111.206 46.3125C111.503 46.5833 111.847 46.7188 112.237 46.7188C112.628 46.7188 112.969 46.5833 113.261 46.3125C113.558 46.0365 113.787 45.6406 113.948 45.125C114.115 44.6094 114.201 43.9948 114.206 43.2812C114.201 42.5729 114.115 41.9609 113.948 41.4453C113.787 40.9297 113.558 40.5365 113.261 40.2656C112.969 39.9948 112.628 39.8594 112.237 39.8594ZM135.272 49.6719H122.366V48.25H125.351V44.6797C124.778 44.3464 124.332 43.9323 124.015 43.4375C123.702 42.9427 123.549 42.3854 123.554 41.7656C123.549 41.0312 123.77 40.3802 124.218 39.8125C124.666 39.2448 125.288 38.8073 126.085 38.5C126.882 38.1875 127.783 38.0312 128.788 38.0312C129.799 38.0312 130.702 38.1875 131.499 38.5C132.301 38.8073 132.926 39.2448 133.374 39.8125C133.827 40.375 134.054 41.026 134.054 41.7656C134.054 42.3698 133.9 42.9193 133.593 43.4141C133.291 43.9036 132.861 44.3125 132.304 44.6406V48.25H135.272V49.6719ZM128.788 39.4062C128.085 39.4062 127.465 39.5026 126.929 39.6953C126.397 39.8828 125.983 40.1536 125.687 40.5078C125.395 40.862 125.252 41.2812 125.257 41.7656C125.252 42.2448 125.395 42.6615 125.687 43.0156C125.983 43.3698 126.4 43.6432 126.937 43.8359C127.473 44.0286 128.09 44.125 128.788 44.125C129.486 44.125 130.103 44.0286 130.64 43.8359C131.181 43.6432 131.601 43.3698 131.897 43.0156C132.2 42.6615 132.351 42.2448 132.351 41.7656C132.351 41.2865 132.2 40.8698 131.897 40.5156C131.601 40.1562 131.184 39.8828 130.647 39.6953C130.111 39.5026 129.491 39.4062 128.788 39.4062ZM130.538 48.25V45.3047C129.986 45.4245 129.403 45.4844 128.788 45.4844C128.2 45.4844 127.627 45.4271 127.069 45.3125V48.25H130.538ZM139.089 46.6719H137.323L137.136 38.6875H139.261L139.089 46.6719ZM138.214 50.125C137.995 50.125 137.792 50.0703 137.604 49.9609C137.417 49.8516 137.268 49.7031 137.159 49.5156C137.05 49.3281 136.995 49.125 136.995 48.9062C136.995 48.6927 137.05 48.4948 137.159 48.3125C137.268 48.125 137.417 47.9766 137.604 47.8672C137.792 47.7578 137.995 47.7031 138.214 47.7031C138.422 47.7031 138.617 47.7578 138.8 47.8672C138.987 47.9766 139.136 48.125 139.245 48.3125C139.36 48.4948 139.417 48.6927 139.417 48.9062C139.417 49.125 139.36 49.3281 139.245 49.5156C139.136 49.7031 138.987 49.8516 138.8 49.9609C138.617 50.0703 138.422 50.125 138.214 50.125Z" fill="white"/>
<rect x="184" y="29" width="30" height="30" rx="4" fill="#0083F0"/>
<path d="M196.939 53.1666C197.658 53.1666 198.284 52.8042 198.71 52.1325L207.671 37.9039C207.924 37.4637 208.167 36.9899 208.167 36.531C208.167 35.5119 207.279 34.8333 206.336 34.8333C205.749 34.8333 205.205 35.1885 204.781 35.8597L196.87 48.7779L193.147 43.9513C192.655 43.3069 192.182 43.1073 191.578 43.1073C190.612 43.1073 189.833 43.9045 189.833 44.9031C189.833 45.3952 190.021 45.8375 190.352 46.2794L195.089 52.1472C195.626 52.8412 196.213 53.1666 196.939 53.1666Z" fill="white"/>
<path d="M20 90C20 83.3726 25.3726 78 32 78H388C394.627 78 400 83.3726 400 90V113C400 119.627 394.627 125 388 125H32C25.3726 125 20 119.627 20 113V90Z" fill="#DCDDDE"/>
<path d="M24 92C24 86.4772 28.4772 82 34 82H200C205.523 82 210 86.4772 210 92V111C210 116.523 205.523 121 200 121H34C28.4772 121 24 116.523 24 111V92Z" fill="#F5F5F5"/>
<path d="M83.3789 98.0508C83.3789 98.9062 83.499 99.7529 83.7393 100.591C83.9795 101.423 84.3369 102.185 84.8115 102.876C85.2861 103.567 85.8633 104.121 86.543 104.537L85.6113 105.82C84.8965 105.393 84.2842 104.81 83.7744 104.071C83.2646 103.327 82.8721 102.483 82.5967 101.54C82.2979 102.565 81.876 103.482 81.3311 104.291C80.792 105.094 80.1504 105.721 79.4062 106.172L78.3691 104.924C79.0898 104.49 79.7051 103.916 80.2148 103.201C80.7246 102.48 81.1084 101.684 81.3662 100.811C81.6299 99.9316 81.7617 99.0352 81.7617 98.1211V95.1855H83.3789V98.0508ZM92.1328 109.494H90.5332V93.7441H92.1328V109.494ZM88.8633 108.721H87.2812V100.67H84.8379V99.2812H87.2812V94.043H88.8633V108.721ZM106.617 97.0312C106.617 97.9512 106.605 98.748 106.582 99.4219C106.564 100.096 106.515 100.875 106.433 101.76C106.351 102.639 106.219 103.6 106.037 104.643L104.332 104.484C104.525 103.512 104.669 102.592 104.763 101.725C104.856 100.857 104.912 100.087 104.93 99.4131C104.953 98.7334 104.965 97.9395 104.965 97.0312V96.7148H95.6836V95.3438H106.617V97.0312ZM108.498 107.262H94.1367V105.873H108.498V107.262ZM117.727 98.0684H121.154V93.7617H122.824V105.24H121.154V99.4043H117.727V102.48H110.414V95.0801H117.727V98.0684ZM112.066 101.162H116.092V96.4336H112.066V101.162ZM123.246 109.16H112.594V104.168H114.264V107.807H123.246V109.16ZM138.029 103.465H127.061V95.0449H137.871V96.3984H128.748V98.5254H137.537V99.8438H128.748V102.129H138.029V103.465ZM139.664 107.508H125.25V106.137H139.664V107.508ZM153.568 102.34H148.805V106.189H155.221V107.561H140.807V106.189H147.152V102.34H142.6V94.957H153.428V96.3105H144.27V101.004H153.568V102.34Z" fill="#0F0F10"/>
<path d="M283.047 104.15C283.047 104.859 283.223 105.542 283.574 106.198C283.932 106.849 284.453 107.379 285.139 107.789C285.602 107.49 285.994 107.136 286.316 106.726C286.645 106.315 286.891 105.888 287.055 105.442C287.219 104.997 287.301 104.566 287.301 104.15V103.395H288.936V104.15C288.936 104.701 289.056 105.234 289.296 105.75C289.536 106.26 289.891 106.714 290.359 107.112C290.828 107.511 291.396 107.818 292.064 108.035L291.238 109.266C290.477 109.002 289.829 108.621 289.296 108.123C288.769 107.631 288.361 107.054 288.074 106.392C287.811 107.06 287.436 107.657 286.949 108.185C286.469 108.712 285.883 109.119 285.191 109.406C284.465 109.131 283.853 108.735 283.354 108.22C282.862 107.704 282.487 107.109 282.229 106.436C281.937 107.074 281.529 107.64 281.008 108.132C280.486 108.624 279.865 109.002 279.145 109.266L278.301 108.035C278.951 107.801 279.511 107.479 279.979 107.068C280.454 106.658 280.812 106.201 281.052 105.697C281.298 105.188 281.424 104.672 281.43 104.15V103.395H283.047V104.15ZM290.641 102.727H288.971V93.7617H290.641V102.727ZM282.098 94.623C282.895 94.623 283.609 94.7812 284.242 95.0977C284.881 95.4141 285.379 95.8564 285.736 96.4248C286.1 96.9873 286.281 97.6289 286.281 98.3496C286.281 99.0645 286.1 99.7031 285.736 100.266C285.379 100.822 284.881 101.259 284.242 101.575C283.609 101.886 282.895 102.041 282.098 102.041C281.301 102.041 280.583 101.886 279.944 101.575C279.306 101.259 278.805 100.822 278.441 100.266C278.078 99.7031 277.896 99.0645 277.896 98.3496C277.896 97.6289 278.078 96.9873 278.441 96.4248C278.805 95.8564 279.306 95.4141 279.944 95.0977C280.583 94.7812 281.301 94.623 282.098 94.623ZM282.098 96.0469C281.605 96.041 281.163 96.1348 280.771 96.3281C280.384 96.5156 280.079 96.7852 279.856 97.1367C279.64 97.4883 279.531 97.8926 279.531 98.3496C279.531 98.8008 279.64 99.2021 279.856 99.5537C280.079 99.8994 280.384 100.169 280.771 100.362C281.163 100.556 281.605 100.652 282.098 100.652C282.584 100.652 283.021 100.556 283.407 100.362C283.794 100.169 284.096 99.8994 284.312 99.5537C284.535 99.2021 284.646 98.8008 284.646 98.3496C284.646 97.8926 284.535 97.4883 284.312 97.1367C284.096 96.7852 283.794 96.5156 283.407 96.3281C283.021 96.1348 282.584 96.041 282.098 96.0469ZM297.408 94.9219C298.117 94.9219 298.756 95.1152 299.324 95.502C299.893 95.8828 300.353 96.4307 300.704 97.1455C301.062 97.8545 301.281 98.6895 301.363 99.6504H304.615V93.7441H306.268V109.529H304.615V101.004H301.381C301.322 102.012 301.117 102.891 300.766 103.641C300.414 104.391 299.948 104.968 299.368 105.372C298.788 105.776 298.135 105.979 297.408 105.979C296.623 105.979 295.929 105.753 295.325 105.302C294.722 104.845 294.25 104.2 293.91 103.368C293.576 102.53 293.412 101.555 293.418 100.441C293.412 99.334 293.576 98.3643 293.91 97.5322C294.25 96.6943 294.722 96.0498 295.325 95.5986C295.935 95.1475 296.629 94.9219 297.408 94.9219ZM297.408 96.416C296.934 96.416 296.515 96.5801 296.151 96.9082C295.788 97.2363 295.504 97.7051 295.299 98.3145C295.1 98.918 295 99.627 295 100.441C295 101.262 295.1 101.977 295.299 102.586C295.504 103.195 295.788 103.664 296.151 103.992C296.515 104.32 296.934 104.484 297.408 104.484C297.883 104.484 298.302 104.32 298.665 103.992C299.028 103.664 299.31 103.195 299.509 102.586C299.714 101.977 299.816 101.262 299.816 100.441C299.816 99.627 299.714 98.918 299.509 98.3145C299.31 97.7051 299.028 97.2363 298.665 96.9082C298.302 96.5801 297.883 96.416 297.408 96.416ZM323.107 107.525H308.693V106.137H312.139V102.023C311.482 101.66 310.973 101.2 310.609 100.644C310.246 100.087 310.064 99.4629 310.064 98.7715C310.064 97.957 310.311 97.2393 310.803 96.6182C311.301 95.9971 311.989 95.5166 312.868 95.1768C313.747 94.8311 314.746 94.6582 315.865 94.6582C316.99 94.6582 317.992 94.8311 318.871 95.1768C319.756 95.5166 320.444 95.9971 320.937 96.6182C321.435 97.2393 321.684 97.957 321.684 98.7715C321.684 99.457 321.508 100.075 321.156 100.626C320.805 101.171 320.307 101.625 319.662 101.988V106.137H323.107V107.525ZM315.865 95.9941C315.045 95.9941 314.318 96.1084 313.686 96.3369C313.053 96.5596 312.561 96.8818 312.209 97.3037C311.857 97.7197 311.682 98.209 311.682 98.7715C311.682 99.3281 311.857 99.8174 312.209 100.239C312.561 100.661 313.053 100.989 313.686 101.224C314.318 101.452 315.045 101.566 315.865 101.566C316.68 101.566 317.403 101.452 318.036 101.224C318.675 100.989 319.173 100.661 319.53 100.239C319.888 99.8174 320.066 99.3281 320.066 98.7715C320.066 98.2148 319.888 97.7256 319.53 97.3037C319.179 96.8818 318.684 96.5596 318.045 96.3369C317.412 96.1084 316.686 95.9941 315.865 95.9941ZM317.975 106.137V102.63C317.336 102.788 316.633 102.867 315.865 102.867C315.127 102.867 314.436 102.791 313.791 102.639V106.137H317.975ZM326.992 104.326H325.252L325.094 95.2734H327.15L326.992 104.326ZM326.131 108.123C325.908 108.123 325.697 108.067 325.498 107.956C325.305 107.845 325.152 107.692 325.041 107.499C324.93 107.306 324.877 107.098 324.883 106.875C324.877 106.652 324.93 106.444 325.041 106.251C325.152 106.058 325.305 105.905 325.498 105.794C325.697 105.683 325.908 105.627 326.131 105.627C326.348 105.627 326.553 105.683 326.746 105.794C326.939 105.905 327.092 106.058 327.203 106.251C327.32 106.444 327.379 106.652 327.379 106.875C327.379 107.098 327.32 107.306 327.203 107.499C327.092 107.692 326.939 107.845 326.746 107.956C326.553 108.067 326.348 108.123 326.131 108.123Z" fill="#383A3B"/>
<path d="M20 163C20 147.536 32.536 135 48 135H313C328.464 135 341 147.536 341 163V278C341 293.464 328.464 306 313 306H48C32.536 306 20 293.464 20 278V163Z" fill="white"/>
<path d="M60.1562 170.516H62.9492V173.029H60.1562V183.105H57.0625V163.34H60.1562V170.516ZM54.5273 167.637H48.3613V175.822C49.7292 175.808 51.0075 175.754 52.1963 175.661C53.3851 175.568 54.5846 175.421 55.7949 175.221L56.1172 177.799C54.7207 178.035 53.335 178.193 51.96 178.271C50.585 178.343 48.9199 178.379 46.9648 178.379H45.2676V165.145H54.5273V167.637ZM79.6537 183.105H76.5385V163.34H79.6537V183.105ZM68.8901 164.693C69.8855 164.693 70.7771 164.983 71.5649 165.563C72.3598 166.136 72.9829 166.956 73.434 168.023C73.8924 169.09 74.1251 170.329 74.1323 171.74C74.1251 173.173 73.8924 174.426 73.434 175.5C72.9829 176.574 72.3598 177.401 71.5649 177.981C70.7771 178.562 69.8855 178.852 68.8901 178.852C67.8732 178.852 66.9636 178.562 66.1616 177.981C65.3595 177.401 64.7329 176.574 64.2817 175.5C63.8305 174.426 63.6049 173.173 63.6049 171.74C63.6049 170.329 63.8305 169.09 64.2817 168.023C64.74 166.956 65.3666 166.136 66.1616 165.563C66.9636 164.983 67.8732 164.693 68.8901 164.693ZM68.8901 167.486C68.1739 167.486 67.6118 167.852 67.2036 168.582C66.8025 169.312 66.6056 170.365 66.6127 171.74C66.6056 173.137 66.8025 174.204 67.2036 174.941C67.6118 175.672 68.1739 176.037 68.8901 176.037C69.3484 176.037 69.7459 175.876 70.0825 175.554C70.419 175.231 70.6804 174.748 70.8666 174.104C71.0528 173.459 71.1459 172.671 71.1459 171.74C71.1459 170.824 71.0528 170.047 70.8666 169.409C70.6804 168.772 70.419 168.292 70.0825 167.97C69.7459 167.647 69.3484 167.486 68.8901 167.486ZM98.3563 173.137H95.2841V169.613H92.244C92.0507 170.279 91.7105 170.867 91.2235 171.375C90.7437 171.883 90.1529 172.277 89.4511 172.557C88.7564 172.829 88.0009 172.965 87.1845 172.965C86.1818 172.965 85.2759 172.771 84.4667 172.385C83.6646 171.991 83.0344 171.447 82.5761 170.752C82.1177 170.05 81.8921 169.255 81.8993 168.367C81.8921 167.508 82.1177 166.734 82.5761 166.047C83.0344 165.359 83.6646 164.822 84.4667 164.436C85.2759 164.049 86.1818 163.855 87.1845 163.855C88.008 163.855 88.7671 163.995 89.4618 164.274C90.1636 164.547 90.7544 164.933 91.2343 165.435C91.7141 165.936 92.0507 166.512 92.244 167.164H95.2841V163.34H98.3563V173.137ZM87.1845 166.348C86.4755 166.348 85.9026 166.527 85.4657 166.885C85.036 167.243 84.8212 167.737 84.8212 168.367C84.8212 169.04 85.036 169.56 85.4657 169.925C85.8954 170.29 86.4683 170.473 87.1845 170.473C87.872 170.473 88.427 170.29 88.8495 169.925C89.272 169.552 89.4833 169.033 89.4833 168.367C89.4833 167.737 89.2684 167.243 88.8387 166.885C88.4162 166.527 87.8648 166.348 87.1845 166.348ZM98.3563 179.453H88.2587V180.441H98.872V182.848H85.1434V177.197H95.2841V176.295H85.1434V173.932H98.3563V179.453ZM118.262 180.936H100.237V178.422H107.692V175.672H102.256V168.883H113.192V167.035H102.235V164.564H116.243V171.289H105.35V173.18H116.694V175.672H110.743V178.422H118.262V180.936ZM134.644 167.551C134.644 168.783 134.634 169.821 134.612 170.666C134.591 171.511 134.53 172.467 134.429 173.534C134.329 174.594 134.172 175.751 133.957 177.004L130.82 176.746C131.049 175.593 131.214 174.497 131.314 173.459C131.422 172.421 131.486 171.479 131.508 170.634C131.536 169.789 131.551 168.761 131.551 167.551H120.658V165.059H134.644V167.551ZM136.793 180.57H118.81V178.057H136.793V180.57ZM153.497 174.469H147.89V178.379H155.409V180.893H137.384V178.379H144.839V174.469H139.446V164.672H153.368V167.121H142.54V172.041H153.497V174.469ZM167.764 175.801C167.764 176.617 167.932 177.394 168.269 178.132C168.612 178.862 169.142 179.482 169.858 179.99C170.589 179.453 171.13 178.816 171.481 178.078C171.839 177.34 172.025 176.581 172.039 175.801V175.264H175.09V175.801C175.076 176.918 175.355 177.892 175.928 178.723C176.508 179.546 177.425 180.148 178.678 180.527L177.195 182.762C175.441 182.196 174.195 181.118 173.457 179.528C173.113 180.309 172.648 180.989 172.061 181.569C171.481 182.157 170.772 182.611 169.934 182.934C168.244 182.339 167.037 181.226 166.314 179.593C165.554 181.125 164.341 182.182 162.672 182.762L161.147 180.527C162.378 180.112 163.284 179.485 163.864 178.647C164.444 177.802 164.742 176.854 164.756 175.801V175.264H167.764V175.801ZM177.002 174.469H173.908V163.361H177.002V174.469ZM166.152 164.307C167.177 164.314 168.104 164.525 168.935 164.94C169.765 165.349 170.417 165.914 170.89 166.638C171.37 167.361 171.609 168.181 171.609 169.098C171.609 170 171.37 170.813 170.89 171.536C170.417 172.259 169.762 172.825 168.924 173.233C168.093 173.642 167.169 173.846 166.152 173.846C165.128 173.846 164.197 173.642 163.359 173.233C162.529 172.825 161.873 172.259 161.394 171.536C160.921 170.813 160.688 170 160.695 169.098C160.688 168.181 160.921 167.361 161.394 166.638C161.873 165.914 162.529 165.349 163.359 164.94C164.197 164.525 165.128 164.314 166.152 164.307ZM166.152 166.906C165.415 166.906 164.82 167.1 164.369 167.486C163.925 167.866 163.703 168.403 163.703 169.098C163.703 169.778 163.929 170.315 164.38 170.709C164.831 171.096 165.422 171.289 166.152 171.289C166.861 171.289 167.434 171.092 167.871 170.698C168.315 170.304 168.537 169.771 168.537 169.098C168.537 168.403 168.319 167.866 167.882 167.486C167.445 167.1 166.869 166.906 166.152 166.906ZM184.49 164.693C185.371 164.693 186.169 164.923 186.885 165.381C187.609 165.832 188.199 166.484 188.658 167.336C189.123 168.188 189.424 169.191 189.56 170.344H192.675V163.34H195.726V183.105H192.675V172.793H189.603C189.496 174.025 189.209 175.099 188.744 176.016C188.285 176.925 187.687 177.627 186.95 178.121C186.219 178.608 185.399 178.852 184.49 178.852C183.48 178.852 182.581 178.562 181.793 177.981C181.013 177.401 180.401 176.574 179.957 175.5C179.52 174.426 179.305 173.173 179.312 171.74C179.305 170.329 179.52 169.09 179.957 168.023C180.401 166.956 181.013 166.136 181.793 165.563C182.581 164.983 183.48 164.693 184.49 164.693ZM184.49 167.486C184.046 167.486 183.655 167.647 183.319 167.97C182.989 168.292 182.732 168.772 182.545 169.409C182.359 170.047 182.27 170.824 182.277 171.74C182.27 172.671 182.356 173.459 182.535 174.104C182.721 174.748 182.982 175.231 183.319 175.554C183.655 175.876 184.046 176.037 184.49 176.037C185.184 176.037 185.725 175.672 186.112 174.941C186.506 174.211 186.703 173.144 186.703 171.74C186.703 170.358 186.506 169.305 186.112 168.582C185.718 167.852 185.177 167.486 184.49 167.486ZM215.61 180.828H197.585V178.314H201.474V173.631C200.722 173.151 200.138 172.567 199.723 171.88C199.314 171.185 199.11 170.415 199.11 169.57C199.11 168.518 199.429 167.587 200.066 166.777C200.711 165.961 201.599 165.331 202.73 164.887C203.862 164.443 205.14 164.221 206.565 164.221C207.991 164.221 209.272 164.443 210.411 164.887C211.55 165.331 212.441 165.961 213.086 166.777C213.738 167.587 214.063 168.518 214.063 169.57C214.063 170.401 213.863 171.157 213.462 171.837C213.061 172.517 212.495 173.097 211.765 173.577V178.314H215.61V180.828ZM206.565 166.648C205.67 166.641 204.89 166.752 204.224 166.981C203.565 167.203 203.056 167.536 202.698 167.98C202.347 168.417 202.175 168.947 202.183 169.57C202.175 170.186 202.347 170.716 202.698 171.16C203.056 171.604 203.565 171.944 204.224 172.181C204.89 172.417 205.67 172.535 206.565 172.535C207.453 172.535 208.23 172.417 208.896 172.181C209.562 171.944 210.078 171.604 210.443 171.16C210.809 170.716 210.991 170.186 210.991 169.57C210.991 168.947 210.809 168.417 210.443 167.98C210.078 167.536 209.562 167.203 208.896 166.981C208.23 166.752 207.453 166.641 206.565 166.648ZM208.628 178.314V174.748C207.991 174.863 207.303 174.92 206.565 174.92C205.828 174.92 205.147 174.863 204.524 174.748V178.314H208.628Z" fill="#0F0F10"/>
<path d="M56.125 213.266H54.6406V205.344H56.125V213.266ZM56.125 219.156H46.9219V214.016H56.125V219.156ZM48.3906 217.953H54.6719V215.203H48.3906V217.953ZM49.6094 207.234C49.6042 207.859 49.7422 208.458 50.0234 209.031C50.3099 209.599 50.7135 210.102 51.2344 210.539C51.7604 210.971 52.375 211.307 53.0781 211.547L52.3438 212.688C51.5365 212.422 50.8333 212.023 50.2344 211.492C49.6406 210.956 49.1823 210.326 48.8594 209.602C48.5417 210.378 48.0781 211.057 47.4688 211.641C46.8594 212.224 46.1406 212.661 45.3125 212.953L44.5781 211.781C45.2917 211.542 45.9141 211.19 46.4453 210.727C46.9766 210.258 47.3828 209.721 47.6641 209.117C47.9505 208.513 48.0938 207.885 48.0938 207.234V205.875H49.6094V207.234ZM63.66 209.453C63.66 210.229 63.8162 210.997 64.1287 211.758C64.4465 212.518 64.884 213.198 65.4412 213.797C66.0037 214.391 66.6392 214.839 67.3475 215.141L66.535 216.297C65.7173 215.938 64.9933 215.396 64.3631 214.672C63.7329 213.943 63.2537 213.107 62.9256 212.164C62.5975 213.169 62.1157 214.07 61.4803 214.867C60.8501 215.664 60.134 216.26 59.3319 216.656L58.4725 215.484C59.16 215.161 59.785 214.68 60.3475 214.039C60.91 213.393 61.3501 212.667 61.6678 211.859C61.9907 211.047 62.1548 210.245 62.16 209.453V207.969H58.9569V206.734H66.8475V207.969H63.66V209.453ZM70.0975 219.328H68.6131V205.328H70.0975V219.328ZM76.2887 206.375C76.919 206.375 77.4867 206.547 77.9919 206.891C78.4971 207.229 78.9059 207.716 79.2184 208.352C79.5361 208.982 79.7315 209.724 79.8044 210.578H82.695V205.328H84.1637V219.359H82.695V211.781H79.82C79.7679 212.677 79.5856 213.458 79.2731 214.125C78.9606 214.792 78.5466 215.305 78.0309 215.664C77.5153 216.023 76.9346 216.203 76.2887 216.203C75.5908 216.203 74.9736 216.003 74.4372 215.602C73.9007 215.195 73.4815 214.622 73.1794 213.883C72.8825 213.138 72.7367 212.271 72.7419 211.281C72.7367 210.297 72.8825 209.435 73.1794 208.695C73.4815 207.951 73.9007 207.378 74.4372 206.977C74.9789 206.576 75.596 206.375 76.2887 206.375ZM76.2887 207.703C75.8669 207.703 75.4945 207.849 75.1716 208.141C74.8486 208.432 74.596 208.849 74.4137 209.391C74.2367 209.927 74.1481 210.557 74.1481 211.281C74.1481 212.01 74.2367 212.646 74.4137 213.188C74.596 213.729 74.8486 214.146 75.1716 214.438C75.4945 214.729 75.8669 214.875 76.2887 214.875C76.7106 214.875 77.083 214.729 77.4059 214.438C77.7289 214.146 77.9789 213.729 78.1559 213.188C78.3382 212.646 78.4294 212.01 78.4294 211.281C78.4294 210.557 78.3382 209.927 78.1559 209.391C77.9789 208.849 77.7289 208.432 77.4059 208.141C77.083 207.849 76.7106 207.703 76.2887 207.703ZM94.4212 206.109C95.0254 206.109 95.5801 206.221 96.0853 206.445C96.5905 206.669 97.0098 206.984 97.3431 207.391C97.6765 207.797 97.8952 208.266 97.9994 208.797H100.734V205.328H102.218V213.328H100.734V210.016H98.015C97.9212 210.562 97.7077 211.047 97.3744 211.469C97.0462 211.885 96.627 212.208 96.1166 212.438C95.6061 212.667 95.041 212.781 94.4212 212.781C93.7233 212.781 93.0957 212.641 92.5384 212.359C91.9811 212.078 91.5436 211.685 91.2259 211.18C90.9082 210.674 90.7494 210.099 90.7494 209.453C90.7494 208.807 90.9082 208.232 91.2259 207.727C91.5436 207.216 91.9811 206.82 92.5384 206.539C93.0957 206.253 93.7233 206.109 94.4212 206.109ZM94.4212 207.359C93.989 207.359 93.6009 207.448 93.2572 207.625C92.9186 207.797 92.653 208.042 92.4603 208.359C92.2676 208.677 92.1712 209.042 92.1712 209.453C92.1712 209.865 92.2676 210.229 92.4603 210.547C92.653 210.859 92.9186 211.102 93.2572 211.273C93.6009 211.445 93.989 211.531 94.4212 211.531C94.8431 211.531 95.2207 211.445 95.5541 211.273C95.8926 211.096 96.1582 210.852 96.3509 210.539C96.5436 210.221 96.64 209.859 96.64 209.453C96.64 209.042 96.5436 208.677 96.3509 208.359C96.1582 208.042 95.8926 207.797 95.5541 207.625C95.2207 207.448 94.8431 207.359 94.4212 207.359ZM102.218 219.156H92.9837V214.016H102.218V219.156ZM94.4525 217.953H100.765V215.203H94.4525V217.953ZM109.441 208.312C109.441 208.859 109.584 209.385 109.87 209.891C110.157 210.396 110.563 210.841 111.089 211.227C111.615 211.612 112.227 211.901 112.925 212.094L112.222 213.25C111.42 213.021 110.719 212.669 110.12 212.195C109.521 211.716 109.06 211.151 108.737 210.5C108.43 211.234 107.974 211.872 107.37 212.414C106.771 212.951 106.06 213.349 105.237 213.609L104.534 212.469C105.232 212.245 105.839 211.922 106.355 211.5C106.876 211.073 107.274 210.586 107.55 210.039C107.831 209.487 107.972 208.911 107.972 208.312V208.141H104.925V206.953H107.972V205.266H109.456V206.953H112.487V208.141H109.441V208.312ZM116.206 213.812H114.722V210.469H112.05V209.25H114.722V205.328H116.206V213.812ZM111.519 214.125C112.493 214.125 113.334 214.227 114.042 214.43C114.756 214.633 115.303 214.927 115.683 215.312C116.063 215.698 116.253 216.161 116.253 216.703C116.253 217.25 116.06 217.719 115.675 218.109C115.295 218.5 114.748 218.797 114.034 219C113.326 219.203 112.487 219.302 111.519 219.297C110.545 219.302 109.701 219.203 108.987 219C108.274 218.797 107.727 218.5 107.347 218.109C106.967 217.719 106.779 217.25 106.784 216.703C106.779 216.161 106.967 215.698 107.347 215.312C107.727 214.927 108.271 214.633 108.98 214.43C109.693 214.227 110.54 214.125 111.519 214.125ZM111.519 215.281C110.493 215.281 109.691 215.406 109.112 215.656C108.54 215.901 108.253 216.25 108.253 216.703C108.253 217.005 108.383 217.266 108.644 217.484C108.904 217.698 109.279 217.865 109.769 217.984C110.258 218.099 110.842 218.156 111.519 218.156C112.201 218.156 112.787 218.099 113.277 217.984C113.766 217.865 114.139 217.698 114.394 217.484C114.654 217.266 114.784 217.005 114.784 216.703C114.784 216.25 114.498 215.901 113.925 215.656C113.352 215.406 112.55 215.281 111.519 215.281ZM134.636 219.328H133.214V205.328H134.636V219.328ZM131.823 218.641H130.417V214.125H128.386C128.136 214.828 127.784 215.37 127.331 215.75C126.878 216.13 126.354 216.318 125.761 216.312C125.156 216.318 124.625 216.12 124.167 215.719C123.714 215.318 123.362 214.745 123.112 214C122.867 213.25 122.745 212.375 122.745 211.375C122.745 210.375 122.867 209.503 123.112 208.758C123.362 208.013 123.714 207.443 124.167 207.047C124.625 206.646 125.156 206.448 125.761 206.453C126.354 206.448 126.875 206.635 127.323 207.016C127.776 207.391 128.13 207.927 128.386 208.625H130.417V205.594H131.823V218.641ZM125.761 207.844C125.417 207.844 125.12 207.984 124.87 208.266C124.625 208.542 124.435 208.945 124.3 209.477C124.169 210.003 124.104 210.635 124.104 211.375C124.104 212.115 124.169 212.75 124.3 213.281C124.435 213.807 124.625 214.211 124.87 214.492C125.12 214.768 125.417 214.906 125.761 214.906C126.104 214.906 126.401 214.768 126.651 214.492C126.906 214.211 127.102 213.805 127.237 213.273C127.378 212.742 127.448 212.109 127.448 211.375C127.448 210.641 127.378 210.008 127.237 209.477C127.102 208.945 126.906 208.542 126.651 208.266C126.401 207.984 126.104 207.844 125.761 207.844ZM128.69 209.828C128.768 210.302 128.808 210.818 128.808 211.375C128.808 211.927 128.768 212.438 128.69 212.906H130.417V209.828H128.69ZM138.092 210.109H139.561V206.609H140.811V215.969H136.874V206.609H138.092V210.109ZM139.561 214.75V211.281H138.092V214.75H139.561ZM142.905 210.109H144.358V206.609H145.592V210.547H147.124V205.328H148.546V219.328H147.124V211.781H145.592V215.969H141.655V206.609H142.905V210.109ZM144.358 214.75V211.281H142.905V214.75H144.358ZM163.378 217.578H150.565V216.344H153.628V212.688C153.044 212.365 152.591 211.956 152.268 211.461C151.945 210.966 151.784 210.411 151.784 209.797C151.784 209.073 152.003 208.435 152.44 207.883C152.883 207.331 153.495 206.904 154.276 206.602C155.057 206.294 155.945 206.141 156.94 206.141C157.94 206.141 158.831 206.294 159.612 206.602C160.398 206.904 161.01 207.331 161.448 207.883C161.891 208.435 162.112 209.073 162.112 209.797C162.112 210.406 161.956 210.956 161.643 211.445C161.331 211.93 160.888 212.333 160.315 212.656V216.344H163.378V217.578ZM156.94 207.328C156.211 207.328 155.565 207.43 155.003 207.633C154.44 207.831 154.003 208.117 153.69 208.492C153.378 208.862 153.221 209.297 153.221 209.797C153.221 210.292 153.378 210.727 153.69 211.102C154.003 211.477 154.44 211.768 155.003 211.977C155.565 212.18 156.211 212.281 156.94 212.281C157.664 212.281 158.307 212.18 158.87 211.977C159.437 211.768 159.88 211.477 160.198 211.102C160.516 210.727 160.674 210.292 160.674 209.797C160.674 209.302 160.516 208.867 160.198 208.492C159.885 208.117 159.445 207.831 158.878 207.633C158.315 207.43 157.669 207.328 156.94 207.328ZM158.815 216.344V213.227C158.247 213.367 157.622 213.438 156.94 213.438C156.284 213.438 155.669 213.37 155.096 213.234V216.344H158.815ZM166.991 214.734H165.444L165.303 206.688H167.131L166.991 214.734ZM166.225 218.109C166.027 218.109 165.84 218.06 165.662 217.961C165.491 217.862 165.355 217.727 165.256 217.555C165.157 217.383 165.11 217.198 165.116 217C165.11 216.802 165.157 216.617 165.256 216.445C165.355 216.273 165.491 216.138 165.662 216.039C165.84 215.94 166.027 215.891 166.225 215.891C166.418 215.891 166.6 215.94 166.772 216.039C166.944 216.138 167.079 216.273 167.178 216.445C167.282 216.617 167.334 216.802 167.334 217C167.334 217.198 167.282 217.383 167.178 217.555C167.079 217.727 166.944 217.862 166.772 217.961C166.6 218.06 166.418 218.109 166.225 218.109Z" fill="#383A3B"/>
<path d="M254.391 262.047C254.99 262.042 255.542 262.148 256.047 262.367C256.552 262.586 256.974 262.896 257.312 263.297C257.656 263.698 257.888 264.161 258.008 264.688H260.562V261.266H262.297V269.312H260.562V266.109H258.023C257.914 266.646 257.69 267.12 257.352 267.531C257.013 267.943 256.586 268.263 256.07 268.492C255.56 268.716 255 268.828 254.391 268.828C253.682 268.828 253.044 268.685 252.477 268.398C251.909 268.107 251.464 267.703 251.141 267.188C250.818 266.672 250.656 266.089 250.656 265.438C250.656 264.786 250.818 264.203 251.141 263.688C251.464 263.167 251.909 262.763 252.477 262.477C253.049 262.185 253.688 262.042 254.391 262.047ZM254.391 263.5C253.995 263.495 253.638 263.573 253.32 263.734C253.003 263.896 252.755 264.125 252.578 264.422C252.401 264.714 252.312 265.052 252.312 265.438C252.312 265.828 252.401 266.169 252.578 266.461C252.755 266.747 253 266.971 253.312 267.133C253.63 267.289 253.99 267.37 254.391 267.375C254.781 267.37 255.13 267.289 255.438 267.133C255.745 266.971 255.987 266.747 256.164 266.461C256.341 266.169 256.432 265.828 256.438 265.438C256.432 265.052 256.341 264.714 256.164 264.422C255.987 264.125 255.742 263.896 255.43 263.734C255.122 263.573 254.776 263.495 254.391 263.5ZM262.297 275.219H252.906V269.969H262.297V275.219ZM254.641 273.812H260.594V271.344H254.641V273.812ZM269.535 264.281C269.535 264.802 269.668 265.307 269.933 265.797C270.199 266.286 270.59 266.721 271.105 267.102C271.621 267.477 272.238 267.76 272.957 267.953L272.144 269.297C271.342 269.078 270.65 268.745 270.066 268.297C269.483 267.844 269.025 267.305 268.691 266.68C268.379 267.388 267.928 268 267.34 268.516C266.751 269.031 266.045 269.411 265.222 269.656L264.41 268.312C265.124 268.094 265.736 267.779 266.246 267.367C266.756 266.951 267.142 266.477 267.402 265.945C267.668 265.409 267.801 264.854 267.801 264.281V264.203H264.847V262.828H267.801V261.203H269.551V262.828H272.488V264.203H269.535V264.281ZM276.285 269.812H274.551V266.547H272.066V265.141H274.551V261.266H276.285V269.812ZM271.504 270.094C272.499 270.094 273.358 270.198 274.082 270.406C274.806 270.609 275.361 270.909 275.746 271.305C276.137 271.695 276.332 272.167 276.332 272.719C276.332 273.276 276.137 273.753 275.746 274.148C275.361 274.549 274.806 274.854 274.082 275.062C273.358 275.271 272.499 275.375 271.504 275.375C270.514 275.375 269.657 275.271 268.933 275.062C268.215 274.854 267.663 274.549 267.277 274.148C266.892 273.753 266.702 273.276 266.707 272.719C266.702 272.167 266.892 271.695 267.277 271.305C267.663 270.909 268.215 270.609 268.933 270.406C269.657 270.198 270.514 270.094 271.504 270.094ZM271.504 271.422C270.509 271.432 269.746 271.547 269.215 271.766C268.689 271.984 268.426 272.302 268.426 272.719C268.426 273.141 268.691 273.466 269.222 273.695C269.759 273.919 270.519 274.031 271.504 274.031C272.504 274.031 273.269 273.919 273.801 273.695C274.332 273.466 274.597 273.141 274.597 272.719C274.597 272.297 274.332 271.979 273.801 271.766C273.275 271.547 272.509 271.432 271.504 271.422ZM291.601 268.141H289.507V275.359H287.773V261.266H289.507V266.719H291.601V268.141ZM280.664 270.438C282.804 270.401 284.81 270.188 286.679 269.797L286.867 271.266C284.81 271.672 282.565 271.875 280.132 271.875H278.945V262.641H280.664V270.438ZM305.339 273.672H292.433V272.25H295.417V268.68C294.845 268.346 294.399 267.932 294.082 267.438C293.769 266.943 293.615 266.385 293.621 265.766C293.615 265.031 293.837 264.38 294.285 263.812C294.733 263.245 295.355 262.807 296.152 262.5C296.949 262.188 297.85 262.031 298.855 262.031C299.865 262.031 300.769 262.188 301.566 262.5C302.368 262.807 302.993 263.245 303.441 263.812C303.894 264.375 304.121 265.026 304.121 265.766C304.121 266.37 303.967 266.919 303.66 267.414C303.358 267.904 302.928 268.312 302.371 268.641V272.25H305.339V273.672ZM298.855 263.406C298.152 263.406 297.532 263.503 296.996 263.695C296.464 263.883 296.05 264.154 295.753 264.508C295.462 264.862 295.319 265.281 295.324 265.766C295.319 266.245 295.462 266.661 295.753 267.016C296.05 267.37 296.467 267.643 297.003 267.836C297.54 268.029 298.157 268.125 298.855 268.125C299.553 268.125 300.17 268.029 300.707 267.836C301.248 267.643 301.667 267.37 301.964 267.016C302.266 266.661 302.417 266.245 302.417 265.766C302.417 265.286 302.266 264.87 301.964 264.516C301.667 264.156 301.251 263.883 300.714 263.695C300.178 263.503 299.558 263.406 298.855 263.406ZM300.605 272.25V269.305C300.053 269.424 299.47 269.484 298.855 269.484C298.266 269.484 297.694 269.427 297.136 269.312V272.25H300.605ZM309.156 270.672H307.39L307.202 262.688H309.327L309.156 270.672ZM308.281 274.125C308.062 274.125 307.859 274.07 307.671 273.961C307.484 273.852 307.335 273.703 307.226 273.516C307.117 273.328 307.062 273.125 307.062 272.906C307.062 272.693 307.117 272.495 307.226 272.312C307.335 272.125 307.484 271.977 307.671 271.867C307.859 271.758 308.062 271.703 308.281 271.703C308.489 271.703 308.684 271.758 308.867 271.867C309.054 271.977 309.202 272.125 309.312 272.312C309.426 272.495 309.484 272.693 309.484 272.906C309.484 273.125 309.426 273.328 309.312 273.516C309.202 273.703 309.054 273.852 308.867 273.961C308.684 274.07 308.489 274.125 308.281 274.125Z" fill="#0F0F10"/>
<path d="M20 328C20 321.373 25.3726 316 32 316H202C208.627 316 214 321.373 214 328V360C214 366.627 208.627 372 202 372H32C25.3726 372 20 366.627 20 360V328Z" fill="#DCDDDE"/>
<path d="M49.3418 345.086H38.373V337.65H49.2012V339.021H40.0254V343.715H49.3418V345.086ZM50.9941 349.92H36.5801V348.531H50.9941V349.92ZM66.5332 345.578H52.1191V344.225H58.5V342.906H53.9648V339.074H63.0527V337.844H53.9297V336.543H64.7227V340.305H55.6172V341.605H65.0391V342.906H60.1523V344.225H66.5332V345.578ZM55.6875 347.67H63.0879V346.299H64.7402V351.801H54.0176V346.299H55.6875V347.67ZM63.0879 350.482V348.953H55.6875V350.482H63.0879ZM79.9629 342.344H82.4941V343.715H79.9629V352.029H78.293V336.244H79.9629V342.344ZM75.7266 339.109H70.0312V346.721C71.4258 346.715 72.6504 346.674 73.7051 346.598C74.7656 346.521 75.832 346.387 76.9043 346.193L77.1152 347.6C76.0312 347.793 74.9648 347.928 73.916 348.004C72.873 348.074 71.666 348.109 70.2949 348.109H69.627H68.3613V337.756H75.7266V339.109ZM97.6465 345.49H91.4062V348.549H89.7188V345.49H83.2324V344.137H97.6465V345.49ZM96.0469 351.66H85.043V347.037H86.7129V350.289H96.0469V351.66ZM90.4219 336.613C91.5469 336.613 92.5283 336.745 93.3662 337.009C94.21 337.267 94.8604 337.636 95.3174 338.116C95.7803 338.597 96.0117 339.162 96.0117 339.812C96.0117 340.463 95.7803 341.028 95.3174 341.509C94.8604 341.983 94.21 342.35 93.3662 342.607C92.5283 342.865 91.5469 342.994 90.4219 342.994C89.3027 342.994 88.3184 342.865 87.4688 342.607C86.625 342.35 85.9717 341.983 85.5088 341.509C85.0459 341.028 84.8145 340.463 84.8145 339.812C84.8145 339.162 85.0459 338.597 85.5088 338.116C85.9717 337.636 86.625 337.267 87.4688 337.009C88.3184 336.745 89.3027 336.613 90.4219 336.613ZM90.4219 337.949C89.6543 337.949 88.9805 338.025 88.4004 338.178C87.8262 338.324 87.3809 338.538 87.0645 338.819C86.7539 339.101 86.6016 339.432 86.6074 339.812C86.6016 340.188 86.7539 340.513 87.0645 340.788C87.3809 341.063 87.8262 341.274 88.4004 341.421C88.9805 341.567 89.6543 341.641 90.4219 341.641C91.1953 341.641 91.8691 341.567 92.4434 341.421C93.0234 341.274 93.4688 341.063 93.7793 340.788C94.0957 340.513 94.2539 340.188 94.2539 339.812C94.2539 339.432 94.0957 339.101 93.7793 338.819C93.4688 338.538 93.0234 338.324 92.4434 338.178C91.8633 338.025 91.1895 337.949 90.4219 337.949ZM111.568 344.84H106.805V348.689H113.221V350.061H98.8066V348.689H105.152V344.84H100.6V337.457H111.428V338.811H102.27V343.504H111.568V344.84ZM124.225 346.65C124.225 347.359 124.4 348.042 124.752 348.698C125.109 349.349 125.631 349.879 126.316 350.289C126.779 349.99 127.172 349.636 127.494 349.226C127.822 348.815 128.068 348.388 128.232 347.942C128.396 347.497 128.479 347.066 128.479 346.65V345.895H130.113V346.65C130.113 347.201 130.233 347.734 130.474 348.25C130.714 348.76 131.068 349.214 131.537 349.612C132.006 350.011 132.574 350.318 133.242 350.535L132.416 351.766C131.654 351.502 131.007 351.121 130.474 350.623C129.946 350.131 129.539 349.554 129.252 348.892C128.988 349.56 128.613 350.157 128.127 350.685C127.646 351.212 127.061 351.619 126.369 351.906C125.643 351.631 125.03 351.235 124.532 350.72C124.04 350.204 123.665 349.609 123.407 348.936C123.114 349.574 122.707 350.14 122.186 350.632C121.664 351.124 121.043 351.502 120.322 351.766L119.479 350.535C120.129 350.301 120.688 349.979 121.157 349.568C121.632 349.158 121.989 348.701 122.229 348.197C122.476 347.688 122.602 347.172 122.607 346.65V345.895H124.225V346.65ZM131.818 345.227H130.148V336.262H131.818V345.227ZM123.275 337.123C124.072 337.123 124.787 337.281 125.42 337.598C126.059 337.914 126.557 338.356 126.914 338.925C127.277 339.487 127.459 340.129 127.459 340.85C127.459 341.564 127.277 342.203 126.914 342.766C126.557 343.322 126.059 343.759 125.42 344.075C124.787 344.386 124.072 344.541 123.275 344.541C122.479 344.541 121.761 344.386 121.122 344.075C120.483 343.759 119.982 343.322 119.619 342.766C119.256 342.203 119.074 341.564 119.074 340.85C119.074 340.129 119.256 339.487 119.619 338.925C119.982 338.356 120.483 337.914 121.122 337.598C121.761 337.281 122.479 337.123 123.275 337.123ZM123.275 338.547C122.783 338.541 122.341 338.635 121.948 338.828C121.562 339.016 121.257 339.285 121.034 339.637C120.817 339.988 120.709 340.393 120.709 340.85C120.709 341.301 120.817 341.702 121.034 342.054C121.257 342.399 121.562 342.669 121.948 342.862C122.341 343.056 122.783 343.152 123.275 343.152C123.762 343.152 124.198 343.056 124.585 342.862C124.972 342.669 125.273 342.399 125.49 342.054C125.713 341.702 125.824 341.301 125.824 340.85C125.824 340.393 125.713 339.988 125.49 339.637C125.273 339.285 124.972 339.016 124.585 338.828C124.198 338.635 123.762 338.541 123.275 338.547ZM138.586 337.422C139.295 337.422 139.934 337.615 140.502 338.002C141.07 338.383 141.53 338.931 141.882 339.646C142.239 340.354 142.459 341.189 142.541 342.15H145.793V336.244H147.445V352.029H145.793V343.504H142.559C142.5 344.512 142.295 345.391 141.943 346.141C141.592 346.891 141.126 347.468 140.546 347.872C139.966 348.276 139.312 348.479 138.586 348.479C137.801 348.479 137.106 348.253 136.503 347.802C135.899 347.345 135.428 346.7 135.088 345.868C134.754 345.03 134.59 344.055 134.596 342.941C134.59 341.834 134.754 340.864 135.088 340.032C135.428 339.194 135.899 338.55 136.503 338.099C137.112 337.647 137.807 337.422 138.586 337.422ZM138.586 338.916C138.111 338.916 137.692 339.08 137.329 339.408C136.966 339.736 136.682 340.205 136.477 340.814C136.277 341.418 136.178 342.127 136.178 342.941C136.178 343.762 136.277 344.477 136.477 345.086C136.682 345.695 136.966 346.164 137.329 346.492C137.692 346.82 138.111 346.984 138.586 346.984C139.061 346.984 139.479 346.82 139.843 346.492C140.206 346.164 140.487 345.695 140.687 345.086C140.892 344.477 140.994 343.762 140.994 342.941C140.994 342.127 140.892 341.418 140.687 340.814C140.487 340.205 140.206 339.736 139.843 339.408C139.479 339.08 139.061 338.916 138.586 338.916ZM164.285 350.025H149.871V348.637H153.316V344.523C152.66 344.16 152.15 343.7 151.787 343.144C151.424 342.587 151.242 341.963 151.242 341.271C151.242 340.457 151.488 339.739 151.98 339.118C152.479 338.497 153.167 338.017 154.046 337.677C154.925 337.331 155.924 337.158 157.043 337.158C158.168 337.158 159.17 337.331 160.049 337.677C160.934 338.017 161.622 338.497 162.114 339.118C162.612 339.739 162.861 340.457 162.861 341.271C162.861 341.957 162.686 342.575 162.334 343.126C161.982 343.671 161.484 344.125 160.84 344.488V348.637H164.285V350.025ZM157.043 338.494C156.223 338.494 155.496 338.608 154.863 338.837C154.23 339.06 153.738 339.382 153.387 339.804C153.035 340.22 152.859 340.709 152.859 341.271C152.859 341.828 153.035 342.317 153.387 342.739C153.738 343.161 154.23 343.489 154.863 343.724C155.496 343.952 156.223 344.066 157.043 344.066C157.857 344.066 158.581 343.952 159.214 343.724C159.853 343.489 160.351 343.161 160.708 342.739C161.065 342.317 161.244 341.828 161.244 341.271C161.244 340.715 161.065 340.226 160.708 339.804C160.356 339.382 159.861 339.06 159.223 338.837C158.59 338.608 157.863 338.494 157.043 338.494ZM159.152 348.637V345.13C158.514 345.288 157.811 345.367 157.043 345.367C156.305 345.367 155.613 345.291 154.969 345.139V348.637H159.152ZM168.17 346.826H166.43L166.271 337.773H168.328L168.17 346.826ZM167.309 350.623C167.086 350.623 166.875 350.567 166.676 350.456C166.482 350.345 166.33 350.192 166.219 349.999C166.107 349.806 166.055 349.598 166.061 349.375C166.055 349.152 166.107 348.944 166.219 348.751C166.33 348.558 166.482 348.405 166.676 348.294C166.875 348.183 167.086 348.127 167.309 348.127C167.525 348.127 167.73 348.183 167.924 348.294C168.117 348.405 168.27 348.558 168.381 348.751C168.498 348.944 168.557 349.152 168.557 349.375C168.557 349.598 168.498 349.806 168.381 349.999C168.27 350.192 168.117 350.345 167.924 350.456C167.73 350.567 167.525 350.623 167.309 350.623Z" fill="#0F0F10"/>
<path d="M190.001 347.833C190.257 347.831 190.477 347.735 190.673 347.532L196.419 341.662C196.584 341.491 196.667 341.287 196.667 341.041C196.667 340.556 196.286 340.167 195.797 340.167C195.558 340.167 195.338 340.264 195.166 340.432L190.002 345.731L184.835 340.432C184.665 340.265 184.449 340.167 184.203 340.167C183.715 340.167 183.333 340.556 183.333 341.041C183.333 341.285 183.416 341.491 183.587 341.662L189.329 347.532C189.53 347.736 189.746 347.833 190.001 347.833Z" fill="#0F0F10"/>
<g clip-path="url(#clip0_852_1036)">
<path d="M25.6602 387.812H22.2422V389.248H25.1816V390.246H22.2422V391.791C23.1035 391.786 23.8258 391.764 24.4092 391.723C24.9925 391.682 25.5827 391.604 26.1797 391.49L26.3027 392.529C25.6374 392.652 24.9811 392.734 24.334 392.775C23.6914 392.812 22.8438 392.83 21.791 392.83H20.998V386.773H25.6602V387.812ZM30.8965 398.162H29.6113V395.1H22.5293V394.061H30.8965V398.162ZM30.8965 393.5H29.666V385.926H30.8965V393.5ZM28.4902 393.418H27.2598V390.164H25.7422V389.098H27.2598V386.172H28.4902V393.418ZM39.0515 387.648C39.0515 388.296 39.2588 388.924 39.6736 389.535C40.0928 390.146 40.6465 390.668 41.3347 391.101C42.0228 391.529 42.7566 391.814 43.5359 391.955L42.9343 393.035C42.2826 392.894 41.6583 392.661 41.0612 392.338C40.4642 392.014 39.931 391.62 39.4616 391.155C38.9968 390.686 38.6345 390.169 38.3747 389.604C38.1104 390.164 37.7458 390.679 37.281 391.148C36.8207 391.613 36.292 392.007 35.695 392.331C35.098 392.655 34.4714 392.889 33.8152 393.035L33.2409 391.955C34.0111 391.809 34.738 391.522 35.4216 391.094C36.1052 390.661 36.6521 390.141 37.0622 389.535C37.4769 388.924 37.6843 388.296 37.6843 387.648V386.719H39.0515V387.648ZM44.0417 396.549H32.8308V395.469H44.0417V396.549ZM55.1498 393.473H46.6186V386.924H55.0268V387.977H47.9311V389.631H54.767V390.656H47.9311V392.434H55.1498V393.473ZM56.4213 396.617H45.2104V395.551H56.4213V396.617ZM71.4735 392.242H70.161V385.912H71.4735V392.242ZM71.4735 395.838H64.6512V397H71.8973V398.039H63.3798V394.895H70.1884V393.828H63.3387V392.803H71.4735V395.838ZM68.4794 387.744H67.3036V390.643C67.9188 390.602 68.4976 390.547 69.0399 390.479L69.0946 391.422C67.0985 391.723 64.6148 391.873 61.6434 391.873L61.493 390.834L62.9833 390.82V387.744H61.8212V386.719H68.4794V387.744ZM64.2274 390.793C65.0523 390.766 65.663 390.741 66.0595 390.718V387.744H64.2274V390.793ZM83.5934 392.789H75.0621V387.006H83.484V388.072H76.3473V391.723H83.5934V392.789ZM84.8785 396.549H73.6676V395.469H84.8785V396.549ZM95.973 392.598H92.2679V395.592H97.2581V396.658H86.0472V395.592H90.9827V392.598H87.4417V386.855H95.8636V387.908H88.7405V391.559H95.973V392.598ZM106.377 394.006C106.377 394.557 106.513 395.088 106.787 395.599C107.065 396.104 107.47 396.517 108.004 396.836C108.364 396.604 108.669 396.328 108.92 396.009C109.175 395.69 109.366 395.357 109.494 395.011C109.622 394.664 109.685 394.329 109.685 394.006V393.418H110.957V394.006C110.957 394.434 111.05 394.849 111.237 395.25C111.424 395.646 111.7 396 112.064 396.31C112.429 396.619 112.871 396.859 113.39 397.027L112.748 397.984C112.155 397.779 111.652 397.483 111.237 397.096C110.827 396.713 110.51 396.264 110.287 395.749C110.082 396.269 109.79 396.733 109.412 397.144C109.038 397.554 108.582 397.87 108.045 398.094C107.48 397.88 107.003 397.572 106.616 397.171C106.233 396.77 105.941 396.307 105.741 395.783C105.513 396.28 105.196 396.72 104.791 397.103C104.385 397.485 103.902 397.779 103.342 397.984L102.685 397.027C103.191 396.845 103.626 396.594 103.991 396.275C104.36 395.956 104.638 395.601 104.825 395.209C105.016 394.812 105.114 394.411 105.119 394.006V393.418H106.377V394.006ZM112.283 392.898H110.984V385.926H112.283V392.898ZM105.638 386.596C106.258 386.596 106.814 386.719 107.306 386.965C107.803 387.211 108.191 387.555 108.469 387.997C108.751 388.435 108.892 388.934 108.892 389.494C108.892 390.05 108.751 390.547 108.469 390.984C108.191 391.417 107.803 391.757 107.306 392.003C106.814 392.244 106.258 392.365 105.638 392.365C105.019 392.365 104.46 392.244 103.964 392.003C103.467 391.757 103.077 391.417 102.795 390.984C102.512 390.547 102.371 390.05 102.371 389.494C102.371 388.934 102.512 388.435 102.795 387.997C103.077 387.555 103.467 387.211 103.964 386.965C104.46 386.719 105.019 386.596 105.638 386.596ZM105.638 387.703C105.256 387.699 104.912 387.771 104.606 387.922C104.305 388.068 104.068 388.277 103.895 388.551C103.727 388.824 103.642 389.139 103.642 389.494C103.642 389.845 103.727 390.157 103.895 390.431C104.068 390.7 104.305 390.909 104.606 391.06C104.912 391.21 105.256 391.285 105.638 391.285C106.017 391.285 106.356 391.21 106.657 391.06C106.958 390.909 107.192 390.7 107.361 390.431C107.534 390.157 107.621 389.845 107.621 389.494C107.621 389.139 107.534 388.824 107.361 388.551C107.192 388.277 106.958 388.068 106.657 387.922C106.356 387.771 106.017 387.699 105.638 387.703ZM117.827 386.828C118.378 386.828 118.875 386.979 119.317 387.279C119.759 387.576 120.117 388.002 120.39 388.558C120.668 389.109 120.839 389.758 120.903 390.506H123.432V385.912H124.717V398.189H123.432V391.559H120.916C120.871 392.342 120.711 393.026 120.438 393.609C120.165 394.193 119.802 394.642 119.351 394.956C118.9 395.271 118.392 395.428 117.827 395.428C117.216 395.428 116.676 395.252 116.207 394.901C115.737 394.546 115.37 394.045 115.106 393.397C114.846 392.746 114.719 391.987 114.723 391.121C114.719 390.26 114.846 389.506 115.106 388.858C115.37 388.207 115.737 387.705 116.207 387.354C116.68 387.004 117.221 386.828 117.827 386.828ZM117.827 387.99C117.457 387.99 117.132 388.118 116.849 388.373C116.567 388.628 116.346 388.993 116.186 389.467C116.031 389.936 115.954 390.488 115.954 391.121C115.954 391.759 116.031 392.315 116.186 392.789C116.346 393.263 116.567 393.628 116.849 393.883C117.132 394.138 117.457 394.266 117.827 394.266C118.196 394.266 118.522 394.138 118.804 393.883C119.087 393.628 119.305 393.263 119.46 392.789C119.62 392.315 119.7 391.759 119.7 391.121C119.7 390.488 119.62 389.936 119.46 389.467C119.305 388.993 119.087 388.628 118.804 388.373C118.522 388.118 118.196 387.99 117.827 387.99ZM138.095 396.631H126.884V395.551H129.564V392.352C129.053 392.069 128.657 391.711 128.374 391.278C128.092 390.845 127.95 390.36 127.95 389.822C127.95 389.189 128.142 388.631 128.525 388.147C128.912 387.664 129.447 387.291 130.131 387.026C130.815 386.757 131.592 386.623 132.462 386.623C133.337 386.623 134.116 386.757 134.8 387.026C135.488 387.291 136.024 387.664 136.406 388.147C136.794 388.631 136.988 389.189 136.988 389.822C136.988 390.355 136.851 390.836 136.577 391.265C136.304 391.688 135.917 392.042 135.415 392.324V395.551H138.095V396.631ZM132.462 387.662C131.824 387.662 131.259 387.751 130.767 387.929C130.275 388.102 129.892 388.353 129.618 388.681C129.345 389.004 129.208 389.385 129.208 389.822C129.208 390.255 129.345 390.636 129.618 390.964C129.892 391.292 130.275 391.547 130.767 391.729C131.259 391.907 131.824 391.996 132.462 391.996C133.096 391.996 133.658 391.907 134.151 391.729C134.647 391.547 135.035 391.292 135.313 390.964C135.591 390.636 135.73 390.255 135.73 389.822C135.73 389.389 135.591 389.009 135.313 388.681C135.039 388.353 134.654 388.102 134.157 387.929C133.665 387.751 133.1 387.662 132.462 387.662ZM134.103 395.551V392.823C133.606 392.946 133.059 393.008 132.462 393.008C131.888 393.008 131.35 392.949 130.849 392.83V395.551H134.103ZM141.396 394.143H140.043L139.92 387.102H141.519L141.396 394.143ZM140.726 397.096C140.553 397.096 140.389 397.052 140.234 396.966C140.084 396.879 139.965 396.761 139.879 396.61C139.792 396.46 139.751 396.298 139.756 396.125C139.751 395.952 139.792 395.79 139.879 395.64C139.965 395.489 140.084 395.371 140.234 395.284C140.389 395.198 140.553 395.154 140.726 395.154C140.895 395.154 141.055 395.198 141.205 395.284C141.355 395.371 141.474 395.489 141.56 395.64C141.652 395.79 141.697 395.952 141.697 396.125C141.697 396.298 141.652 396.46 141.56 396.61C141.474 396.761 141.355 396.879 141.205 396.966C141.055 397.052 140.895 397.096 140.726 397.096Z" fill="#5D5F60"/>
<rect x="145" y="382" width="4" height="4" rx="2" fill="#FF4242"/>
<rect x="20.5" y="406.5" width="379" height="55" rx="11.5" fill="white"/>
<rect x="20.5" y="406.5" width="379" height="55" rx="11.5" stroke="#DCDDDE"/>
<path d="M48.8496 432.344H51.3809V433.715H48.8496V442.029H47.1797V426.244H48.8496V432.344ZM44.6133 429.109H38.918V436.721C40.3125 436.715 41.5371 436.674 42.5918 436.598C43.6523 436.521 44.7188 436.387 45.791 436.193L46.002 437.6C44.918 437.793 43.8516 437.928 42.8027 438.004C41.7598 438.074 40.5527 438.109 39.1816 438.109H38.5137H37.248V427.756H44.6133V429.109ZM66.5332 436.246H52.1191V434.893H66.5332V436.246ZM65.0566 441.66H54V437.371H55.6699V440.307H65.0566V441.66ZM64.7227 430.762H55.6172V432.309H65.0391V433.592H53.9648V429.549H63.0527V428.037H53.9297V426.719H64.7227V430.762ZM80.332 427.123C80.332 429.197 79.7432 430.946 78.5654 432.37C77.3877 433.788 75.5742 434.875 73.125 435.631L72.457 434.277C74.8301 433.592 76.5146 432.572 77.5107 431.219L72.668 431.588L72.4043 430.234L78.1875 429.988C78.3691 429.549 78.4922 429.045 78.5566 428.477H73.1953V427.123H80.332ZM85.2188 435.297H83.5488V431.711H80.2793V430.34H83.5488V426.262H85.2188V435.297ZM85.2188 441.801H74.918V436.105H85.2188V441.801ZM76.5527 440.447H83.5664V437.441H76.5527V440.447ZM102.059 440.113H87.6445V438.689H93.9727V435.332H88.9102V434.014H91.2656V429.057H88.875V427.703H100.74V429.057H98.332V434.014H100.688V435.332H95.625V438.689H102.059V440.113ZM96.6973 434.014V429.057H92.918V434.014H96.6973ZM116.332 437.617H114.662V430.938H110.338V429.566H114.662V426.262H116.332V437.617ZM116.736 441.66H106.066V436.686H107.754V440.307H116.736V441.66ZM105.785 433.732C106.963 433.732 108.082 433.686 109.143 433.592C110.203 433.492 111.275 433.334 112.359 433.117L112.57 434.523C111.398 434.758 110.241 434.922 109.099 435.016C107.956 435.109 106.711 435.156 105.363 435.156H104.133V427.387H105.785V433.732ZM131.537 435.965H120.568V427.545H131.379V428.898H122.256V431.025H131.045V432.344H122.256V434.629H131.537V435.965ZM133.172 440.008H118.758V438.637H133.172V440.008ZM147.076 434.84H142.312V438.689H148.729V440.061H134.314V438.689H140.66V434.84H136.107V427.457H146.936V428.811H137.777V433.504H147.076V434.84ZM158.625 427.123C159.305 427.123 159.929 427.249 160.497 427.501C161.065 427.753 161.537 428.107 161.912 428.564C162.287 429.021 162.533 429.549 162.65 430.146H165.727V426.244H167.396V435.244H165.727V431.518H162.668C162.562 432.133 162.322 432.678 161.947 433.152C161.578 433.621 161.106 433.984 160.532 434.242C159.958 434.5 159.322 434.629 158.625 434.629C157.84 434.629 157.134 434.471 156.507 434.154C155.88 433.838 155.388 433.396 155.03 432.827C154.673 432.259 154.494 431.611 154.494 430.885C154.494 430.158 154.673 429.511 155.03 428.942C155.388 428.368 155.88 427.923 156.507 427.606C157.134 427.284 157.84 427.123 158.625 427.123ZM158.625 428.529C158.139 428.529 157.702 428.629 157.315 428.828C156.935 429.021 156.636 429.297 156.419 429.654C156.202 430.012 156.094 430.422 156.094 430.885C156.094 431.348 156.202 431.758 156.419 432.115C156.636 432.467 156.935 432.739 157.315 432.933C157.702 433.126 158.139 433.223 158.625 433.223C159.1 433.223 159.524 433.126 159.899 432.933C160.28 432.733 160.579 432.458 160.796 432.106C161.013 431.749 161.121 431.342 161.121 430.885C161.121 430.422 161.013 430.012 160.796 429.654C160.579 429.297 160.28 429.021 159.899 428.828C159.524 428.629 159.1 428.529 158.625 428.529ZM167.396 441.801H157.008V436.018H167.396V441.801ZM158.66 440.447H165.762V437.354H158.66V440.447ZM175.342 429.602C175.342 430.217 175.503 430.809 175.825 431.377C176.147 431.945 176.604 432.446 177.196 432.88C177.788 433.313 178.477 433.639 179.262 433.855L178.471 435.156C177.568 434.898 176.78 434.503 176.106 433.97C175.433 433.431 174.914 432.795 174.551 432.062C174.205 432.889 173.692 433.606 173.013 434.216C172.339 434.819 171.539 435.268 170.613 435.561L169.822 434.277C170.607 434.025 171.29 433.662 171.87 433.188C172.456 432.707 172.904 432.159 173.215 431.544C173.531 430.923 173.689 430.275 173.689 429.602V429.408H170.262V428.072H173.689V426.174H175.359V428.072H178.77V429.408H175.342V429.602ZM182.953 435.789H181.283V432.027H178.277V430.656H181.283V426.244H182.953V435.789ZM177.68 436.141C178.775 436.141 179.722 436.255 180.519 436.483C181.321 436.712 181.937 437.043 182.364 437.477C182.792 437.91 183.006 438.432 183.006 439.041C183.006 439.656 182.789 440.184 182.355 440.623C181.928 441.062 181.312 441.396 180.51 441.625C179.713 441.854 178.77 441.965 177.68 441.959C176.584 441.965 175.635 441.854 174.832 441.625C174.029 441.396 173.414 441.062 172.986 440.623C172.559 440.184 172.348 439.656 172.354 439.041C172.348 438.432 172.559 437.91 172.986 437.477C173.414 437.043 174.026 436.712 174.823 436.483C175.626 436.255 176.578 436.141 177.68 436.141ZM177.68 437.441C176.525 437.441 175.623 437.582 174.973 437.863C174.328 438.139 174.006 438.531 174.006 439.041C174.006 439.381 174.152 439.674 174.445 439.92C174.738 440.16 175.16 440.348 175.711 440.482C176.262 440.611 176.918 440.676 177.68 440.676C178.447 440.676 179.106 440.611 179.657 440.482C180.208 440.348 180.627 440.16 180.914 439.92C181.207 439.674 181.354 439.381 181.354 439.041C181.354 438.531 181.031 438.139 180.387 437.863C179.742 437.582 178.84 437.441 177.68 437.441ZM202.148 429.707H204.434V431.096H202.148V434.242H200.479V426.244H202.148V429.707ZM197.754 433.732H190.389V427.264H197.754V433.732ZM192.023 432.396H196.119V428.6H192.023V432.396ZM192.99 440.201C194.127 440.148 195.123 439.979 195.979 439.691L196.225 441.01C195.568 441.232 194.909 441.382 194.247 441.458C193.585 441.534 192.891 441.572 192.164 441.572H191.355V435.613H192.99V440.201ZM203.625 437.02H195.68V435.789H198.861V434.471H200.496V435.789H203.625V437.02ZM199.652 437.529C200.232 437.535 200.745 437.629 201.19 437.811C201.642 437.986 201.993 438.241 202.245 438.575C202.497 438.903 202.623 439.293 202.623 439.744C202.623 440.195 202.497 440.588 202.245 440.922C201.993 441.256 201.642 441.511 201.19 441.687C200.745 441.868 200.232 441.959 199.652 441.959C199.061 441.959 198.539 441.868 198.088 441.687C197.637 441.511 197.288 441.256 197.042 440.922C196.796 440.588 196.676 440.195 196.682 439.744C196.676 439.293 196.796 438.903 197.042 438.575C197.288 438.241 197.637 437.986 198.088 437.811C198.539 437.629 199.061 437.535 199.652 437.529ZM199.652 438.689C199.207 438.701 198.847 438.801 198.571 438.988C198.296 439.17 198.158 439.422 198.158 439.744C198.158 440.072 198.296 440.333 198.571 440.526C198.847 440.72 199.207 440.816 199.652 440.816C200.092 440.816 200.446 440.72 200.716 440.526C200.991 440.333 201.129 440.072 201.129 439.744C201.129 439.428 200.991 439.176 200.716 438.988C200.446 438.801 200.092 438.701 199.652 438.689ZM209.549 427.422C210.328 427.422 211.022 427.647 211.632 428.099C212.247 428.55 212.725 429.194 213.064 430.032C213.41 430.864 213.586 431.834 213.592 432.941C213.586 434.055 213.41 435.03 213.064 435.868C212.725 436.7 212.247 437.345 211.632 437.802C211.022 438.253 210.328 438.479 209.549 438.479C208.764 438.479 208.066 438.253 207.457 437.802C206.848 437.345 206.37 436.7 206.024 435.868C205.685 435.03 205.518 434.055 205.523 432.941C205.518 431.834 205.685 430.864 206.024 430.032C206.37 429.2 206.848 428.559 207.457 428.107C208.066 427.65 208.764 427.422 209.549 427.422ZM209.549 428.916C209.068 428.916 208.644 429.08 208.274 429.408C207.911 429.736 207.627 430.205 207.422 430.814C207.223 431.418 207.123 432.127 207.123 432.941C207.123 433.762 207.223 434.477 207.422 435.086C207.627 435.695 207.911 436.164 208.274 436.492C208.644 436.82 209.068 436.984 209.549 436.984C210.035 436.984 210.463 436.82 210.832 436.492C211.201 436.164 211.485 435.695 211.685 435.086C211.89 434.477 211.992 433.762 211.992 432.941C211.992 432.127 211.89 431.418 211.685 430.814C211.485 430.205 211.201 429.736 210.832 429.408C210.463 429.08 210.035 428.916 209.549 428.916ZM217.6 432.414H220.131V433.82H217.6V441.994H215.93V426.244H217.6V432.414ZM235.301 440.025H220.887V438.637H224.332V434.523C223.676 434.16 223.166 433.7 222.803 433.144C222.439 432.587 222.258 431.963 222.258 431.271C222.258 430.457 222.504 429.739 222.996 429.118C223.494 428.497 224.183 428.017 225.062 427.677C225.94 427.331 226.939 427.158 228.059 427.158C229.184 427.158 230.186 427.331 231.064 427.677C231.949 428.017 232.638 428.497 233.13 429.118C233.628 429.739 233.877 430.457 233.877 431.271C233.877 431.957 233.701 432.575 233.35 433.126C232.998 433.671 232.5 434.125 231.855 434.488V438.637H235.301V440.025ZM228.059 428.494C227.238 428.494 226.512 428.608 225.879 428.837C225.246 429.06 224.754 429.382 224.402 429.804C224.051 430.22 223.875 430.709 223.875 431.271C223.875 431.828 224.051 432.317 224.402 432.739C224.754 433.161 225.246 433.489 225.879 433.724C226.512 433.952 227.238 434.066 228.059 434.066C228.873 434.066 229.597 433.952 230.229 433.724C230.868 433.489 231.366 433.161 231.724 432.739C232.081 432.317 232.26 431.828 232.26 431.271C232.26 430.715 232.081 430.226 231.724 429.804C231.372 429.382 230.877 429.06 230.238 428.837C229.605 428.608 228.879 428.494 228.059 428.494ZM230.168 438.637V435.13C229.529 435.288 228.826 435.367 228.059 435.367C227.32 435.367 226.629 435.291 225.984 435.139V438.637H230.168ZM239.186 436.826H237.445L237.287 427.773H239.344L239.186 436.826ZM238.324 440.623C238.102 440.623 237.891 440.567 237.691 440.456C237.498 440.345 237.346 440.192 237.234 439.999C237.123 439.806 237.07 439.598 237.076 439.375C237.07 439.152 237.123 438.944 237.234 438.751C237.346 438.558 237.498 438.405 237.691 438.294C237.891 438.183 238.102 438.127 238.324 438.127C238.541 438.127 238.746 438.183 238.939 438.294C239.133 438.405 239.285 438.558 239.396 438.751C239.514 438.944 239.572 439.152 239.572 439.375C239.572 439.598 239.514 439.806 239.396 439.999C239.285 440.192 239.133 440.345 238.939 440.456C238.746 440.567 238.541 440.623 238.324 440.623Z" fill="#5D5F60"/>
</g>
<defs>
<clipPath id="clip0_852_1036">
<rect width="380" height="80" fill="white" transform="translate(20 382)"/>
</clipPath>
</defs>
</svg>
