<svg width="359" height="425" viewBox="0 0 359 425" fill="none" xmlns="http://www.w3.org/2000/svg">
<g clip-path="url(#clip0_852_1988)">
<path d="M0 28C0 12.536 12.536 0 28 0H331C346.464 0 359 12.536 359 28V397C359 412.464 346.464 425 331 425H28C12.536 425 0 412.464 0 397V28Z" fill="white"/>
<path d="M0 28C0 12.536 12.536 0 28 0H331C346.464 0 359 12.536 359 28V397C359 412.464 346.464 425 331 425H28C12.536 425 0 412.464 0 397V28Z" fill="black" fill-opacity="0.2"/>
<path d="M24.623 42.7559C24.623 41.5527 25.0205 40.6647 25.8154 40.0918C26.6104 39.5189 27.6523 39.1895 28.9414 39.1035C29.5859 39.0605 30.3737 39.0247 31.3047 38.9961C31.4193 38.9818 31.5625 38.9746 31.7344 38.9746V38.0293C31.7344 37.6211 31.5947 37.3096 31.3154 37.0947C31.0361 36.8727 30.6458 36.7617 30.1445 36.7617C29.6576 36.7617 29.2673 36.862 28.9736 37.0625C28.68 37.263 28.4974 37.5566 28.4258 37.9434H25.0527C25.1029 37.2415 25.332 36.6077 25.7402 36.042C26.1556 35.4691 26.7428 35.0179 27.502 34.6885C28.2682 34.3519 29.1777 34.1836 30.2305 34.1836C31.2044 34.1836 32.0781 34.3376 32.8516 34.6455C33.6322 34.9463 34.2445 35.3903 34.6885 35.9775C35.1396 36.5576 35.3652 37.2559 35.3652 38.0723V46H31.9492V44.3672H31.8633C31.5339 44.9688 31.0863 45.4271 30.5205 45.7422C29.9548 46.0573 29.2708 46.2148 28.4688 46.2148C27.7096 46.2148 27.04 46.0859 26.46 45.8281C25.887 45.5703 25.4359 45.1836 25.1064 44.668C24.7842 44.1452 24.623 43.5078 24.623 42.7559ZM28.0605 42.6055C28.0605 42.9922 28.1966 43.2894 28.4688 43.4971C28.748 43.7048 29.1133 43.8086 29.5645 43.8086C29.9727 43.8086 30.3451 43.7262 30.6816 43.5615C31.0182 43.3968 31.2832 43.1676 31.4766 42.874C31.6699 42.5732 31.763 42.2331 31.7559 41.8535V41.1016H31.541L29.543 41.2305C29.0846 41.2878 28.723 41.4382 28.458 41.6816C28.193 41.918 28.0605 42.2259 28.0605 42.6055ZM37.1381 34.334H40.769V46H37.1381V34.334ZM38.9643 32.9375C38.6277 32.9375 38.3162 32.8623 38.0297 32.7119C37.7433 32.5544 37.5141 32.3431 37.3422 32.0781C37.1775 31.806 37.0952 31.5124 37.0952 31.1973C37.0952 30.8822 37.1775 30.5921 37.3422 30.3271C37.5141 30.055 37.7433 29.8438 38.0297 29.6934C38.3162 29.5358 38.6277 29.457 38.9643 29.457C39.3009 29.457 39.6124 29.5358 39.8989 29.6934C40.1925 29.8438 40.4252 30.055 40.5971 30.3271C40.769 30.5921 40.8549 30.8822 40.8549 31.1973C40.8549 31.5124 40.769 31.806 40.5971 32.0781C40.4252 32.3431 40.1925 32.5544 39.8989 32.7119C39.6124 32.8623 39.3009 32.9375 38.9643 32.9375ZM46.9247 46.1719C46.0438 46.1719 45.2489 45.9427 44.5399 45.4844C43.8309 45.026 43.2688 44.3457 42.8534 43.4434C42.4452 42.541 42.2411 41.4525 42.2411 40.1777C42.2411 38.8672 42.4524 37.7607 42.8749 36.8584C43.3046 35.9561 43.8703 35.2865 44.5721 34.8496C45.2811 34.4056 46.0582 34.1836 46.9032 34.1836C47.7626 34.1836 48.4608 34.3877 48.9979 34.7959C49.5422 35.2041 49.9468 35.7161 50.2118 36.332H50.2977V30.4453H53.9071V46H50.3192V44.1094H50.2118C49.9468 44.7038 49.5386 45.1979 48.9872 45.5918C48.4358 45.9785 47.7483 46.1719 46.9247 46.1719ZM48.1493 43.3359C48.844 43.3359 49.3846 43.0495 49.7714 42.4766C50.1652 41.9036 50.3622 41.1302 50.3622 40.1562C50.3622 39.1823 50.1688 38.416 49.7821 37.8574C49.3954 37.2988 48.8511 37.0195 48.1493 37.0195C47.4546 37.0195 46.9139 37.3024 46.5272 37.8682C46.1477 38.4339 45.9579 39.1966 45.9579 40.1562C45.9579 41.1374 46.1513 41.9144 46.538 42.4873C46.9247 43.0531 47.4618 43.3359 48.1493 43.3359ZM63.2425 41.0801H56.0667V38.2871H63.2425V41.0801ZM65.3591 30.4453H68.99V38.5664H69.1404L72.5134 34.334H76.6384L72.4382 39.415L76.8103 46H72.6209L69.7527 41.5312L68.99 42.4443V46H65.3591V30.4453ZM77.509 34.334H81.1398V46H77.509V34.334ZM79.3352 32.9375C78.9986 32.9375 78.687 32.8623 78.4006 32.7119C78.1141 32.5544 77.885 32.3431 77.7131 32.0781C77.5484 31.806 77.466 31.5124 77.466 31.1973C77.466 30.8822 77.5484 30.5921 77.7131 30.3271C77.885 30.055 78.1141 29.8438 78.4006 29.6934C78.687 29.5358 78.9986 29.457 79.3352 29.457C79.6717 29.457 79.9833 29.5358 80.2697 29.6934C80.5633 29.8438 80.7961 30.055 80.968 30.3271C81.1398 30.5921 81.2258 30.8822 81.2258 31.1973C81.2258 31.5124 81.1398 31.806 80.968 32.0781C80.7961 32.3431 80.5633 32.5544 80.2697 32.7119C79.9833 32.8623 79.6717 32.9375 79.3352 32.9375ZM89.5299 36.998H87.403V42.3477C87.403 42.7201 87.4996 42.9743 87.693 43.1104C87.8864 43.2464 88.1836 43.3145 88.5846 43.3145C88.8854 43.3145 89.2506 43.3001 89.6803 43.2715V46.043C89.358 46.0859 89.068 46.1182 88.8102 46.1396C88.5595 46.1611 88.248 46.1719 87.8756 46.1719C86.5579 46.1719 85.5446 45.8926 84.8356 45.334C84.1338 44.7682 83.7864 43.9089 83.7936 42.7559V36.998H82.2252V34.334H83.7936V31.541H87.403V34.334H89.5299V36.998ZM103.775 28.5977C105.307 28.6048 106.611 28.7409 107.685 29.0059C108.766 29.2637 109.59 29.6432 110.156 30.1445C110.722 30.6387 111.008 31.2402 111.015 31.9492C111.008 33.0378 110.374 33.8721 109.114 34.4521C107.861 35.0322 106.081 35.3223 103.775 35.3223C102.242 35.3223 100.935 35.1934 99.854 34.9355C98.7726 34.6777 97.9491 34.2982 97.3833 33.7969C96.8176 33.2884 96.5347 32.6725 96.5347 31.9492C96.5347 31.2402 96.8176 30.6387 97.3833 30.1445C97.9491 29.6432 98.7726 29.2637 99.854 29.0059C100.935 28.7409 102.242 28.6048 103.775 28.5977ZM103.775 30.8535C102.4 30.8535 101.39 30.943 100.746 31.1221C100.101 31.3011 99.7788 31.5768 99.7788 31.9492C99.7788 32.2285 99.9185 32.4469 100.198 32.6045C100.477 32.762 100.903 32.8766 101.476 32.9482C102.049 33.0199 102.815 33.0592 103.775 33.0664C104.749 33.0592 105.526 33.0199 106.106 32.9482C106.686 32.8766 107.116 32.762 107.395 32.6045C107.674 32.4469 107.814 32.2285 107.814 31.9492C107.814 31.5768 107.488 31.3011 106.836 31.1221C106.185 30.943 105.164 30.8535 103.775 30.8535ZM112.777 38.5664H94.7945V36.1172H112.777V38.5664ZM110.628 44.7324H99.8863V45.6348H111.101V47.9551H96.8355V42.584H107.556V41.7461H96.8355V39.5117H110.628V44.7324ZM134.993 48.0625H131.856V37.4922H129.557V34.8496H131.856V28.3398H134.993V48.0625ZM123.047 32.916C123.04 34.291 123.119 35.5371 123.284 36.6543C123.448 37.7643 123.774 38.7777 124.261 39.6943C124.741 38.7848 125.06 37.7786 125.217 36.6758C125.375 35.5729 125.454 34.3197 125.454 32.916V29.8438H128.397V32.916C128.397 34.2266 128.461 35.3903 128.59 36.4072C128.719 37.4242 128.991 38.391 129.407 39.3076C129.822 40.2243 130.438 41.0013 131.254 41.6387L129.342 43.8301C128.196 42.9564 127.373 41.6208 126.871 39.8232C126.327 41.6924 125.454 43.0781 124.25 43.9805C123.054 43.0996 122.184 41.7461 121.64 39.9199C121.146 41.6029 120.383 42.8633 119.352 43.7012L117.289 41.6387C118.099 40.987 118.711 40.2028 119.126 39.2861C119.542 38.3695 119.814 37.4027 119.943 36.3857C120.079 35.3688 120.147 34.2122 120.147 32.916V29.8438H123.047V32.916ZM141.75 29.6934C142.76 29.6934 143.662 29.9834 144.457 30.5635C145.252 31.1364 145.875 31.9564 146.326 33.0234C146.777 34.0905 147.006 35.3294 147.014 36.7402C147.006 38.1725 146.777 39.4258 146.326 40.5C145.875 41.5742 145.252 42.4014 144.457 42.9814C143.662 43.5615 142.76 43.8516 141.75 43.8516C140.726 43.8516 139.813 43.5615 139.011 42.9814C138.209 42.4014 137.582 41.5742 137.131 40.5C136.68 39.4258 136.458 38.1725 136.465 36.7402C136.458 35.3294 136.68 34.0905 137.131 33.0234C137.582 31.9564 138.209 31.1364 139.011 30.5635C139.813 29.9834 140.726 29.6934 141.75 29.6934ZM141.75 32.4863C141.284 32.4863 140.88 32.6475 140.536 32.9697C140.192 33.292 139.927 33.7718 139.741 34.4092C139.555 35.0465 139.465 35.8236 139.473 36.7402C139.465 37.6712 139.555 38.459 139.741 39.1035C139.927 39.748 140.192 40.2314 140.536 40.5537C140.88 40.876 141.284 41.0371 141.75 41.0371C142.459 41.0371 143.017 40.6719 143.426 39.9414C143.834 39.2109 144.042 38.1439 144.049 36.7402C144.042 35.3581 143.834 34.3053 143.426 33.582C143.017 32.8516 142.459 32.4863 141.75 32.4863ZM154.705 35.3652H152.062V38.5879H154.705V41.1016H152.062V48.0625H148.969V28.3398H152.062V32.8086H154.705V35.3652ZM164.384 33.668H154.974V31.2188H158.197V28.877H161.247V31.2188H164.384V33.668ZM159.743 34.4199C160.581 34.4199 161.33 34.6204 161.989 35.0215C162.647 35.4225 163.159 35.9847 163.525 36.708C163.897 37.4242 164.083 38.237 164.083 39.1465C164.083 40.0632 163.897 40.8867 163.525 41.6172C163.159 42.3405 162.647 42.9062 161.989 43.3145C161.33 43.7155 160.581 43.916 159.743 43.916C158.906 43.916 158.154 43.7119 157.488 43.3037C156.822 42.8955 156.299 42.3298 155.919 41.6064C155.547 40.8831 155.361 40.0632 155.361 39.1465C155.361 38.237 155.547 37.4242 155.919 36.708C156.299 35.9847 156.822 35.4225 157.488 35.0215C158.154 34.6204 158.906 34.4199 159.743 34.4199ZM159.743 36.9766C159.235 36.9622 158.827 37.1484 158.519 37.5352C158.218 37.9219 158.068 38.459 158.068 39.1465C158.068 39.8411 158.218 40.3747 158.519 40.7471C158.82 41.1123 159.228 41.2949 159.743 41.2949C160.23 41.2949 160.624 41.1087 160.925 40.7363C161.226 40.3639 161.376 39.834 161.376 39.1465C161.376 38.459 161.222 37.9219 160.914 37.5352C160.614 37.1484 160.223 36.9622 159.743 36.9766ZM172.118 48.0625H169.175V38.7383H167.908V47.2461H165.029V28.7051H167.908V36.2676H169.175V28.3398H172.118V48.0625ZM191.594 45.8281H173.569V43.3145H177.458V38.6309C176.706 38.151 176.122 37.5674 175.707 36.8799C175.299 36.1852 175.094 35.4154 175.094 34.5703C175.094 33.5176 175.413 32.5866 176.051 31.7773C176.695 30.9609 177.583 30.3307 178.715 29.8867C179.846 29.4427 181.124 29.2207 182.55 29.2207C183.975 29.2207 185.257 29.4427 186.395 29.8867C187.534 30.3307 188.426 30.9609 189.07 31.7773C189.722 32.5866 190.048 33.5176 190.048 34.5703C190.048 35.401 189.847 36.1566 189.446 36.8369C189.045 37.5173 188.479 38.0973 187.749 38.5771V43.3145H191.594V45.8281ZM182.55 31.6484C181.654 31.6413 180.874 31.7523 180.208 31.9814C179.549 32.2035 179.04 32.5365 178.682 32.9805C178.331 33.4173 178.16 33.9473 178.167 34.5703C178.16 35.1862 178.331 35.7161 178.682 36.1602C179.04 36.6042 179.549 36.9443 180.208 37.1807C180.874 37.417 181.654 37.5352 182.55 37.5352C183.438 37.5352 184.215 37.417 184.881 37.1807C185.547 36.9443 186.062 36.6042 186.427 36.1602C186.793 35.7161 186.975 35.1862 186.975 34.5703C186.975 33.9473 186.793 33.4173 186.427 32.9805C186.062 32.5365 185.547 32.2035 184.881 31.9814C184.215 31.7523 183.438 31.6413 182.55 31.6484ZM184.612 43.3145V39.748C183.975 39.8626 183.287 39.9199 182.55 39.9199C181.812 39.9199 181.132 39.8626 180.509 39.748V43.3145H184.612ZM196.719 41.252H193.647L193.324 30.4453H197.041L196.719 41.252ZM195.172 46.2148C194.821 46.2148 194.495 46.1289 194.194 45.957C193.894 45.7852 193.657 45.5488 193.486 45.248C193.314 44.9473 193.231 44.6178 193.238 44.2598C193.231 43.916 193.314 43.5973 193.486 43.3037C193.657 43.0101 193.894 42.7773 194.194 42.6055C194.495 42.4336 194.821 42.3477 195.172 42.3477C195.509 42.3477 195.824 42.4336 196.117 42.6055C196.418 42.7773 196.658 43.0101 196.837 43.3037C197.023 43.5973 197.12 43.916 197.127 44.2598C197.12 44.6178 197.027 44.9473 196.848 45.248C196.669 45.5417 196.429 45.778 196.128 45.957C195.827 46.1289 195.509 46.2148 195.172 46.2148Z" fill="#383A3B"/>
<rect x="19" y="75" width="321" height="331" rx="32" fill="#F5F5F5"/>
<path d="M63.3097 110.11H65.2077V111.93C65.2077 112.953 65.0257 113.923 64.6617 114.842C64.315 115.761 63.8297 116.619 63.2057 117.416C62.599 118.196 61.8883 118.898 61.0737 119.522C60.2763 120.146 59.4183 120.675 58.4997 121.108C57.5983 121.541 56.6797 121.871 55.7437 122.096L54.7817 120.302C55.5963 120.129 56.411 119.86 57.2257 119.496C58.0577 119.132 58.8377 118.69 59.5657 118.17C60.2937 117.633 60.935 117.035 61.4897 116.376C62.0617 115.717 62.5037 115.015 62.8157 114.27C63.145 113.507 63.3097 112.727 63.3097 111.93V110.11ZM63.7257 110.11H65.5717V111.93C65.5717 112.727 65.7363 113.507 66.0657 114.27C66.395 115.015 66.837 115.717 67.3917 116.376C67.9637 117.035 68.6137 117.633 69.3417 118.17C70.0697 118.69 70.841 119.141 71.6557 119.522C72.4877 119.886 73.3197 120.146 74.1517 120.302L73.1637 122.096C72.2277 121.871 71.309 121.541 70.4077 121.108C69.5063 120.675 68.6483 120.146 67.8337 119.522C67.0363 118.898 66.3257 118.196 65.7017 117.416C65.0777 116.619 64.5923 115.761 64.2457 114.842C63.899 113.923 63.7257 112.953 63.7257 111.93V110.11ZM53.8977 127.062H75.2177V128.856H53.8977V127.062ZM95.5736 108.524H97.6276V126.204H95.5736V108.524ZM91.8296 115.778H96.2756V117.572H91.8296V115.778ZM90.4256 108.966H92.4796V125.424H90.4256V108.966ZM82.2356 129.74H98.3556V131.508H82.2356V129.74ZM82.2356 124.072H84.3936V130.728H82.2356V124.072ZM86.1356 110.526H88.2156C88.2156 112.433 87.9123 114.209 87.3056 115.856C86.699 117.485 85.7196 118.95 84.3676 120.25C83.033 121.55 81.2736 122.668 79.0896 123.604L78.0496 122.044C79.9736 121.229 81.525 120.276 82.7036 119.184C83.8996 118.092 84.7663 116.87 85.3036 115.518C85.8583 114.149 86.1356 112.684 86.1356 111.124V110.526ZM79.0896 110.526H86.8636V112.294H79.0896V110.526ZM85.9276 114.894V116.428L78.3356 117.234L77.9976 115.414L85.9276 114.894ZM118.276 110.734H120.174V111.436C120.174 112.424 119.931 113.334 119.446 114.166C118.961 114.998 118.293 115.743 117.444 116.402C116.612 117.043 115.65 117.581 114.558 118.014C113.483 118.43 112.339 118.725 111.126 118.898L110.32 117.182C111.152 117.061 111.958 116.879 112.738 116.636C113.535 116.393 114.263 116.099 114.922 115.752C115.581 115.388 116.161 114.981 116.664 114.53C117.167 114.079 117.557 113.594 117.834 113.074C118.129 112.554 118.276 112.008 118.276 111.436V110.734ZM119.16 110.734H121.058V111.436C121.058 111.991 121.197 112.528 121.474 113.048C121.769 113.568 122.167 114.062 122.67 114.53C123.173 114.981 123.753 115.388 124.412 115.752C125.088 116.099 125.816 116.393 126.596 116.636C127.376 116.879 128.182 117.061 129.014 117.182L128.208 118.898C127.012 118.725 125.868 118.43 124.776 118.014C123.684 117.581 122.722 117.043 121.89 116.402C121.058 115.743 120.391 114.998 119.888 114.166C119.403 113.334 119.16 112.424 119.16 111.436V110.734ZM110.996 109.668H128.364V111.41H110.996V109.668ZM109.02 120.588H130.34V122.356H109.02V120.588ZM118.744 121.706H120.902V127.114H118.744V121.706ZM111.724 129.74H127.974V131.508H111.724V129.74ZM111.724 124.826H113.882V130.39H111.724V124.826ZM150.046 108.498H152.204V132.054H150.046V108.498ZM134.29 110.5H136.448V116.688H143.234V110.5H145.366V126.386H134.29V110.5ZM136.448 118.404V124.592H143.234V118.404H136.448ZM172.794 108.498H174.952V132.002H172.794V108.498ZM174.38 118.04H178.696V119.834H174.38V118.04ZM166.788 111.02H168.894C168.894 113.256 168.53 115.397 167.802 117.442C167.074 119.47 165.93 121.351 164.37 123.084C162.81 124.8 160.756 126.291 158.208 127.556L157.012 125.892C159.196 124.8 161.007 123.526 162.446 122.07C163.902 120.597 164.985 118.967 165.696 117.182C166.424 115.379 166.788 113.438 166.788 111.358V111.02ZM158.104 111.02H167.88V112.814H158.104V111.02ZM189.985 118.638H201.997V120.406H189.985V118.638ZM194.795 120.042H196.953V125.45H194.795V120.042ZM189.985 110.734H201.893V112.476H192.117V119.262H189.985V110.734ZM205.117 108.498H207.275V132.054H205.117V108.498ZM188.528 126.958L188.243 125.138C189.785 125.138 191.423 125.129 193.157 125.112C194.89 125.077 196.649 125.017 198.435 124.93C200.22 124.826 201.936 124.679 203.583 124.488L203.765 126.074C202.049 126.334 200.298 126.533 198.513 126.672C196.745 126.793 195.011 126.871 193.312 126.906C191.631 126.941 190.037 126.958 188.528 126.958ZM218.036 122.824H219.726V124.202C219.726 125.225 219.518 126.239 219.102 127.244C218.686 128.232 218.08 129.116 217.282 129.896C216.502 130.676 215.54 131.283 214.396 131.716L213.33 130.104C214.318 129.74 215.159 129.246 215.852 128.622C216.563 127.981 217.1 127.279 217.464 126.516C217.846 125.736 218.036 124.965 218.036 124.202V122.824ZM218.504 122.824H220.116V124.202C220.116 124.999 220.272 125.797 220.584 126.594C220.896 127.374 221.364 128.093 221.988 128.752C222.612 129.393 223.401 129.913 224.354 130.312L223.418 131.924C222.292 131.473 221.364 130.841 220.636 130.026C219.908 129.211 219.371 128.301 219.024 127.296C218.678 126.273 218.504 125.242 218.504 124.202V122.824ZM226.72 122.824H228.332V124.202C228.332 125.121 228.159 126.091 227.812 127.114C227.466 128.119 226.928 129.055 226.2 129.922C225.472 130.789 224.545 131.456 223.418 131.924L222.508 130.312C223.444 129.861 224.224 129.289 224.848 128.596C225.472 127.903 225.94 127.166 226.252 126.386C226.564 125.606 226.72 124.878 226.72 124.202V122.824ZM227.162 122.824H228.826V124.202C228.826 125.017 229.008 125.814 229.372 126.594C229.754 127.374 230.291 128.067 230.984 128.674C231.695 129.281 232.553 129.757 233.558 130.104L232.466 131.716C231.322 131.3 230.352 130.711 229.554 129.948C228.774 129.185 228.176 128.31 227.76 127.322C227.362 126.334 227.162 125.294 227.162 124.202V122.824ZM223.6 114.4H229.814V116.168H223.6V114.4ZM218.452 109.824C219.596 109.824 220.619 110.058 221.52 110.526C222.439 110.994 223.158 111.644 223.678 112.476C224.198 113.308 224.458 114.261 224.458 115.336C224.458 116.428 224.198 117.39 223.678 118.222C223.158 119.037 222.439 119.678 221.52 120.146C220.619 120.614 219.596 120.848 218.452 120.848C217.291 120.848 216.251 120.614 215.332 120.146C214.431 119.678 213.72 119.037 213.2 118.222C212.68 117.39 212.42 116.428 212.42 115.336C212.42 114.261 212.68 113.308 213.2 112.476C213.72 111.644 214.431 110.994 215.332 110.526C216.251 110.058 217.291 109.824 218.452 109.824ZM218.452 111.644C217.69 111.644 217.005 111.8 216.398 112.112C215.809 112.424 215.341 112.866 214.994 113.438C214.648 113.993 214.474 114.625 214.474 115.336C214.474 116.064 214.648 116.705 214.994 117.26C215.341 117.815 215.809 118.257 216.398 118.586C217.005 118.898 217.69 119.054 218.452 119.054C219.198 119.054 219.865 118.898 220.454 118.586C221.061 118.257 221.538 117.815 221.884 117.26C222.231 116.705 222.404 116.064 222.404 115.336C222.404 114.625 222.231 113.993 221.884 113.438C221.538 112.866 221.061 112.424 220.454 112.112C219.865 111.8 219.198 111.644 218.452 111.644ZM229.216 108.498H231.374V121.914H229.216V108.498ZM238.626 122.616H240.758V125.32H252.276V122.616H254.408V131.716H238.626V122.616ZM240.758 127.01V129.974H252.276V127.01H240.758ZM235.948 119.21H257.19V120.978H235.948V119.21ZM245.464 108.758H247.336V109.824C247.336 110.639 247.163 111.41 246.816 112.138C246.47 112.849 245.993 113.507 245.386 114.114C244.797 114.703 244.104 115.232 243.306 115.7C242.526 116.168 241.677 116.558 240.758 116.87C239.857 117.182 238.921 117.416 237.95 117.572L237.144 115.856C237.994 115.735 238.817 115.544 239.614 115.284C240.429 115.024 241.192 114.712 241.902 114.348C242.613 113.967 243.237 113.542 243.774 113.074C244.312 112.589 244.728 112.077 245.022 111.54C245.317 110.985 245.464 110.413 245.464 109.824V108.758ZM245.828 108.758H247.674V109.824C247.674 110.396 247.822 110.959 248.116 111.514C248.428 112.051 248.853 112.563 249.39 113.048C249.928 113.516 250.543 113.941 251.236 114.322C251.947 114.703 252.701 115.033 253.498 115.31C254.313 115.57 255.136 115.752 255.968 115.856L255.188 117.572C254.218 117.416 253.273 117.182 252.354 116.87C251.453 116.558 250.604 116.168 249.806 115.7C249.026 115.215 248.333 114.669 247.726 114.062C247.137 113.455 246.669 112.797 246.322 112.086C245.993 111.375 245.828 110.621 245.828 109.824V108.758ZM276.974 108.498H279.106V132.028H276.974V108.498ZM261.348 110.812H263.48V125.372H261.348V110.812ZM261.348 124.098H263.272C265.075 124.098 266.904 124.02 268.758 123.864C270.63 123.691 272.554 123.405 274.53 123.006L274.816 124.826C272.771 125.259 270.804 125.563 268.914 125.736C267.025 125.892 265.144 125.97 263.272 125.97H261.348V124.098ZM299.696 108.498H301.854V132.054H299.696V108.498ZM301.36 117.78H305.702V119.574H301.36V117.78ZM284.798 124.358H286.644C288.083 124.358 289.4 124.341 290.596 124.306C291.81 124.254 292.971 124.167 294.08 124.046C295.207 123.925 296.351 123.76 297.512 123.552L297.772 125.398C296.559 125.606 295.38 125.771 294.236 125.892C293.11 126.013 291.931 126.091 290.7 126.126C289.47 126.161 288.118 126.178 286.644 126.178H284.798V124.358ZM284.798 110.786H295.692V112.554H286.93V125.19H284.798V110.786Z" fill="#0F0F10"/>
<path d="M101.32 152V140.727H102.688L108.805 149.5H108.93V140.727H110.32V152H108.953L102.836 143.258H102.711V152H101.32ZM113.195 152V140.727H120.039V141.992H114.602V145.867H119.594V147.117H114.602V152H113.195ZM126.891 152.266C123.828 152.266 121.914 150 121.914 146.375V146.359C121.914 142.727 123.82 140.461 126.883 140.461C129.258 140.461 131.109 141.953 131.445 144.117L131.438 144.133H130.023L130.016 144.117C129.641 142.672 128.438 141.758 126.883 141.758C124.719 141.758 123.359 143.539 123.359 146.359V146.375C123.359 149.195 124.719 150.969 126.891 150.969C128.461 150.969 129.656 150.164 130.008 148.867L130.023 148.852H131.445V148.867C131.07 150.93 129.289 152.266 126.891 152.266ZM138.243 148.56H139.171C139.939 148.56 140.617 148.555 141.203 148.544C141.79 148.523 142.339 148.485 142.851 148.432C143.374 148.368 143.907 148.288 144.451 148.192L144.579 149.296C144.025 149.392 143.481 149.472 142.947 149.536C142.414 149.589 141.843 149.627 141.235 149.648C140.638 149.669 139.95 149.68 139.171 149.68H138.243V148.56ZM138.243 140.432H143.939V141.52H139.507V148.976H138.243V140.432ZM139.123 144.256H143.715V145.312H139.123V144.256ZM148.691 138.768H149.971V153.248H148.691V138.768ZM146.387 144.576H149.171V145.664H146.387V144.576ZM145.507 139.072H146.771V152.512H145.507V139.072ZM153.81 140.304H163.122V141.392H153.81V140.304ZM152.386 150.032H165.458V151.136H152.386V150.032ZM162.402 140.304H163.714V141.76C163.714 142.368 163.703 143.019 163.682 143.712C163.671 144.395 163.629 145.152 163.554 145.984C163.479 146.816 163.351 147.755 163.17 148.8L161.826 148.656C162.018 147.675 162.151 146.773 162.226 145.952C162.311 145.131 162.359 144.373 162.37 143.68C162.391 142.987 162.402 142.347 162.402 141.76V140.304ZM167.089 145.488H180.209V146.512H167.089V145.488ZM168.657 147.664H178.577V150.752H170.001V152.448H168.689V149.84H177.265V148.624H168.657V147.664ZM168.689 152.096H179.041V153.056H168.689V152.096ZM168.753 139.2H178.529V142.208H170.097V143.776H168.785V141.312H177.217V140.144H168.753V139.2ZM168.785 143.456H178.785V144.416H168.785V143.456ZM186.947 145.216H187.859C188.627 145.216 189.299 145.211 189.875 145.2C190.462 145.179 191.011 145.141 191.523 145.088C192.035 145.024 192.558 144.939 193.091 144.832L193.235 145.92C192.681 146.027 192.137 146.112 191.603 146.176C191.081 146.229 190.521 146.267 189.923 146.288C189.326 146.299 188.638 146.304 187.859 146.304H186.947V145.216ZM186.947 139.648H192.531V140.72H188.227V146.016H186.947V139.648ZM187.827 142.384H192.371V143.44H187.827V142.384ZM197.251 138.784H198.515V146.992H197.251V138.784ZM194.963 142.272H197.699V143.376H194.963V142.272ZM194.051 139.056H195.299V146.88H194.051V139.056ZM189.027 147.568H190.339V149.168H197.219V147.568H198.515V153.056H189.027V147.568ZM190.339 150.224V151.968H197.219V150.224H190.339ZM201.01 141.248H208.194V142.336H201.01V141.248ZM204.61 143.296C205.218 143.296 205.752 143.435 206.21 143.712C206.68 143.989 207.048 144.379 207.314 144.88C207.581 145.371 207.714 145.941 207.714 146.592C207.714 147.243 207.581 147.819 207.314 148.32C207.048 148.811 206.68 149.2 206.21 149.488C205.752 149.765 205.218 149.904 204.61 149.904C204.013 149.904 203.48 149.765 203.01 149.488C202.541 149.2 202.173 148.811 201.906 148.32C201.64 147.819 201.506 147.243 201.506 146.592C201.506 145.941 201.64 145.371 201.906 144.88C202.173 144.389 202.541 144.005 203.01 143.728C203.48 143.44 204.013 143.296 204.61 143.296ZM204.61 144.416C204.248 144.416 203.917 144.512 203.618 144.704C203.33 144.885 203.101 145.141 202.93 145.472C202.77 145.792 202.69 146.165 202.69 146.592C202.69 147.019 202.77 147.397 202.93 147.728C203.101 148.059 203.33 148.315 203.618 148.496C203.917 148.677 204.248 148.768 204.61 148.768C204.984 148.768 205.314 148.677 205.602 148.496C205.89 148.315 206.114 148.059 206.274 147.728C206.445 147.397 206.53 147.019 206.53 146.592C206.53 146.165 206.445 145.792 206.274 145.472C206.114 145.141 205.89 144.885 205.602 144.704C205.314 144.512 204.984 144.416 204.61 144.416ZM212.018 138.768H213.282V153.248H212.018V138.768ZM209.698 144.864H212.434V145.952H209.698V144.864ZM208.914 139.104H210.162V152.544H208.914V139.104ZM203.954 139.2H205.266V141.904H203.954V139.2ZM221.553 140.208H222.705V140.816C222.705 141.328 222.604 141.813 222.401 142.272C222.198 142.731 221.916 143.157 221.553 143.552C221.19 143.936 220.769 144.277 220.289 144.576C219.809 144.875 219.292 145.131 218.737 145.344C218.193 145.547 217.628 145.696 217.041 145.792L216.529 144.736C217.041 144.672 217.537 144.555 218.017 144.384C218.508 144.203 218.966 143.989 219.393 143.744C219.82 143.499 220.193 143.221 220.513 142.912C220.844 142.603 221.1 142.272 221.281 141.92C221.462 141.557 221.553 141.189 221.553 140.816V140.208ZM221.889 140.208H223.041V140.816C223.041 141.189 223.132 141.557 223.313 141.92C223.494 142.272 223.745 142.603 224.065 142.912C224.396 143.221 224.774 143.499 225.201 143.744C225.628 143.989 226.081 144.203 226.561 144.384C227.052 144.555 227.553 144.672 228.065 144.736L227.569 145.792C226.982 145.696 226.412 145.547 225.857 145.344C225.302 145.131 224.785 144.875 224.305 144.576C223.825 144.277 223.404 143.936 223.041 143.552C222.678 143.157 222.396 142.731 222.193 142.272C221.99 141.813 221.889 141.328 221.889 140.816V140.208ZM221.617 147.728H222.929V153.232H221.617V147.728ZM215.761 147.008H228.833V148.096H215.761V147.008ZM216.993 139.664H227.585V140.736H216.993V139.664ZM236.176 143.952H238.96V145.056H236.176V143.952ZM233.488 140.128H234.528V142.896C234.528 143.643 234.448 144.379 234.288 145.104C234.138 145.829 233.914 146.512 233.616 147.152C233.328 147.792 232.976 148.368 232.56 148.88C232.144 149.392 231.674 149.808 231.152 150.128L230.32 149.136C230.81 148.837 231.253 148.464 231.648 148.016C232.042 147.568 232.373 147.067 232.64 146.512C232.917 145.947 233.125 145.36 233.264 144.752C233.413 144.133 233.488 143.515 233.488 142.896V140.128ZM233.744 140.128H234.768V142.848C234.768 143.424 234.832 144.005 234.96 144.592C235.098 145.168 235.29 145.723 235.536 146.256C235.792 146.779 236.106 147.259 236.48 147.696C236.853 148.133 237.274 148.496 237.744 148.784L236.992 149.808C236.469 149.488 236.005 149.083 235.6 148.592C235.194 148.091 234.853 147.531 234.576 146.912C234.298 146.283 234.09 145.621 233.952 144.928C233.813 144.235 233.744 143.541 233.744 142.848V140.128ZM241.504 138.768H242.784V153.248H241.504V138.768ZM238.56 139.072H239.808V152.512H238.56V139.072ZM248.414 146.224H249.726V150.544H248.414V146.224ZM253.758 146.224H255.086V150.544H253.758V146.224ZM245.198 150.288H258.318V151.392H245.198V150.288ZM251.726 139.68C252.75 139.68 253.657 139.835 254.446 140.144C255.236 140.453 255.854 140.885 256.302 141.44C256.761 141.995 256.99 142.651 256.99 143.408C256.99 144.155 256.761 144.811 256.302 145.376C255.854 145.931 255.236 146.363 254.446 146.672C253.657 146.971 252.75 147.12 251.726 147.12C250.713 147.12 249.806 146.971 249.006 146.672C248.217 146.363 247.598 145.931 247.15 145.376C246.702 144.811 246.478 144.155 246.478 143.408C246.478 142.651 246.702 141.995 247.15 141.44C247.598 140.885 248.217 140.453 249.006 140.144C249.806 139.835 250.713 139.68 251.726 139.68ZM251.726 140.736C250.958 140.736 250.276 140.848 249.678 141.072C249.081 141.296 248.612 141.611 248.27 142.016C247.929 142.411 247.758 142.875 247.758 143.408C247.758 143.941 247.929 144.411 248.27 144.816C248.612 145.211 249.081 145.52 249.678 145.744C250.276 145.968 250.958 146.08 251.726 146.08C252.505 146.08 253.193 145.968 253.79 145.744C254.388 145.52 254.857 145.211 255.198 144.816C255.54 144.411 255.71 143.941 255.71 143.408C255.71 142.875 255.54 142.411 255.198 142.016C254.857 141.611 254.388 141.296 253.79 141.072C253.193 140.848 252.505 140.736 251.726 140.736Z" fill="#383A3B"/>
<circle cx="179.5" cy="234" r="54" stroke="#007AFF" stroke-width="6"/>
<path d="M198.517 208.486H160.021C155.603 208.486 152.021 212.068 152.021 216.486V277.28C152.021 278.879 152.778 280.397 154.163 281.198C158.944 283.964 168.195 287.752 179.269 287.752C190.343 287.752 199.594 283.964 204.376 281.198C205.76 280.397 206.517 278.879 206.517 277.28V216.486C206.517 212.068 202.935 208.486 198.517 208.486Z" fill="#E0EFFE" stroke="#007AFF" stroke-width="3"/>
<path d="M164.792 208.486L166.773 211.954H191.544L193.525 208.486" stroke="#007AFF" stroke-width="4" stroke-linejoin="round"/>
<rect x="47" y="328" width="265" height="48" rx="24" fill="white" fill-opacity="0.6"/>
<path d="M47 352C47 338.745 57.7452 328 71 328H288C301.255 328 312 338.745 312 352V352C312 365.255 301.255 376 288 376H71C57.7452 376 47 365.255 47 352V352Z" fill="#0088FF"/>
<path d="M169.015 346.678H170.46V346.882C170.46 347.641 170.29 348.344 169.95 348.99C169.621 349.636 169.134 350.186 168.488 350.639C167.853 351.092 167.071 351.427 166.142 351.642L165.411 350.248C166.182 350.078 166.833 349.829 167.366 349.5C167.899 349.171 168.307 348.78 168.59 348.327C168.873 347.874 169.015 347.392 169.015 346.882V346.678ZM169.355 346.678H170.8V346.882C170.8 347.358 170.936 347.806 171.208 348.225C171.491 348.644 171.899 349.013 172.432 349.33C172.965 349.636 173.611 349.868 174.37 350.027L173.656 351.404C172.738 351.211 171.956 350.9 171.31 350.469C170.675 350.027 170.188 349.5 169.848 348.888C169.519 348.276 169.355 347.607 169.355 346.882V346.678ZM165.768 345.522H174.047V346.916H165.768V345.522ZM169.015 343.89H170.8V346.491H169.015V343.89ZM169.015 352.73H170.817V358.935H169.015V352.73ZM175.866 343.873H177.634V359.411H175.866V343.873ZM165.003 354.005L164.782 352.526C165.745 352.526 166.794 352.52 167.927 352.509C169.072 352.486 170.233 352.441 171.412 352.373C172.602 352.305 173.747 352.197 174.846 352.05L174.965 353.342C173.832 353.546 172.676 353.693 171.497 353.784C170.33 353.875 169.191 353.937 168.08 353.971C166.981 353.994 165.955 354.005 165.003 354.005ZM179.991 356.011H194.067V357.473H179.991V356.011ZM186.077 352.373H187.845V356.436H186.077V352.373ZM186.009 344.825H187.573V345.998C187.573 346.655 187.465 347.29 187.25 347.902C187.046 348.503 186.745 349.064 186.349 349.585C185.963 350.106 185.504 350.577 184.972 350.996C184.439 351.415 183.85 351.772 183.204 352.067C182.569 352.362 181.9 352.577 181.198 352.713L180.45 351.217C181.062 351.115 181.645 350.945 182.201 350.707C182.756 350.469 183.266 350.18 183.731 349.84C184.195 349.5 184.598 349.126 184.938 348.718C185.278 348.299 185.538 347.862 185.72 347.409C185.912 346.944 186.009 346.474 186.009 345.998V344.825ZM186.349 344.825H187.896V345.998C187.896 346.474 187.992 346.944 188.185 347.409C188.377 347.874 188.644 348.31 188.984 348.718C189.324 349.126 189.726 349.506 190.191 349.857C190.655 350.197 191.165 350.486 191.721 350.724C192.276 350.951 192.865 351.115 193.489 351.217L192.724 352.713C192.021 352.577 191.347 352.362 190.701 352.067C190.066 351.772 189.482 351.421 188.95 351.013C188.417 350.594 187.952 350.123 187.556 349.602C187.17 349.069 186.87 348.503 186.655 347.902C186.451 347.29 186.349 346.655 186.349 345.998V344.825Z" fill="white"/>
<rect x="19" y="75" width="321" height="331" rx="32" fill="#F5F5F5"/>
<path d="M63.3097 110.11H65.2077V111.93C65.2077 112.953 65.0257 113.923 64.6617 114.842C64.315 115.761 63.8297 116.619 63.2057 117.416C62.599 118.196 61.8883 118.898 61.0737 119.522C60.2763 120.146 59.4183 120.675 58.4997 121.108C57.5983 121.541 56.6797 121.871 55.7437 122.096L54.7817 120.302C55.5963 120.129 56.411 119.86 57.2257 119.496C58.0577 119.132 58.8377 118.69 59.5657 118.17C60.2937 117.633 60.935 117.035 61.4897 116.376C62.0617 115.717 62.5037 115.015 62.8157 114.27C63.145 113.507 63.3097 112.727 63.3097 111.93V110.11ZM63.7257 110.11H65.5717V111.93C65.5717 112.727 65.7363 113.507 66.0657 114.27C66.395 115.015 66.837 115.717 67.3917 116.376C67.9637 117.035 68.6137 117.633 69.3417 118.17C70.0697 118.69 70.841 119.141 71.6557 119.522C72.4877 119.886 73.3197 120.146 74.1517 120.302L73.1637 122.096C72.2277 121.871 71.309 121.541 70.4077 121.108C69.5063 120.675 68.6483 120.146 67.8337 119.522C67.0363 118.898 66.3257 118.196 65.7017 117.416C65.0777 116.619 64.5923 115.761 64.2457 114.842C63.899 113.923 63.7257 112.953 63.7257 111.93V110.11ZM53.8977 127.062H75.2177V128.856H53.8977V127.062ZM95.5736 108.524H97.6276V126.204H95.5736V108.524ZM91.8296 115.778H96.2756V117.572H91.8296V115.778ZM90.4256 108.966H92.4796V125.424H90.4256V108.966ZM82.2356 129.74H98.3556V131.508H82.2356V129.74ZM82.2356 124.072H84.3936V130.728H82.2356V124.072ZM86.1356 110.526H88.2156C88.2156 112.433 87.9123 114.209 87.3056 115.856C86.699 117.485 85.7196 118.95 84.3676 120.25C83.033 121.55 81.2736 122.668 79.0896 123.604L78.0496 122.044C79.9736 121.229 81.525 120.276 82.7036 119.184C83.8996 118.092 84.7663 116.87 85.3036 115.518C85.8583 114.149 86.1356 112.684 86.1356 111.124V110.526ZM79.0896 110.526H86.8636V112.294H79.0896V110.526ZM85.9276 114.894V116.428L78.3356 117.234L77.9976 115.414L85.9276 114.894ZM118.276 110.734H120.174V111.436C120.174 112.424 119.931 113.334 119.446 114.166C118.961 114.998 118.293 115.743 117.444 116.402C116.612 117.043 115.65 117.581 114.558 118.014C113.483 118.43 112.339 118.725 111.126 118.898L110.32 117.182C111.152 117.061 111.958 116.879 112.738 116.636C113.535 116.393 114.263 116.099 114.922 115.752C115.581 115.388 116.161 114.981 116.664 114.53C117.167 114.079 117.557 113.594 117.834 113.074C118.129 112.554 118.276 112.008 118.276 111.436V110.734ZM119.16 110.734H121.058V111.436C121.058 111.991 121.197 112.528 121.474 113.048C121.769 113.568 122.167 114.062 122.67 114.53C123.173 114.981 123.753 115.388 124.412 115.752C125.088 116.099 125.816 116.393 126.596 116.636C127.376 116.879 128.182 117.061 129.014 117.182L128.208 118.898C127.012 118.725 125.868 118.43 124.776 118.014C123.684 117.581 122.722 117.043 121.89 116.402C121.058 115.743 120.391 114.998 119.888 114.166C119.403 113.334 119.16 112.424 119.16 111.436V110.734ZM110.996 109.668H128.364V111.41H110.996V109.668ZM109.02 120.588H130.34V122.356H109.02V120.588ZM118.744 121.706H120.902V127.114H118.744V121.706ZM111.724 129.74H127.974V131.508H111.724V129.74ZM111.724 124.826H113.882V130.39H111.724V124.826ZM150.046 108.498H152.204V132.054H150.046V108.498ZM134.29 110.5H136.448V116.688H143.234V110.5H145.366V126.386H134.29V110.5ZM136.448 118.404V124.592H143.234V118.404H136.448ZM172.794 108.498H174.952V132.002H172.794V108.498ZM174.38 118.04H178.696V119.834H174.38V118.04ZM166.788 111.02H168.894C168.894 113.256 168.53 115.397 167.802 117.442C167.074 119.47 165.93 121.351 164.37 123.084C162.81 124.8 160.756 126.291 158.208 127.556L157.012 125.892C159.196 124.8 161.007 123.526 162.446 122.07C163.902 120.597 164.985 118.967 165.696 117.182C166.424 115.379 166.788 113.438 166.788 111.358V111.02ZM158.104 111.02H167.88V112.814H158.104V111.02ZM189.985 118.638H201.997V120.406H189.985V118.638ZM194.795 120.042H196.953V125.45H194.795V120.042ZM189.985 110.734H201.893V112.476H192.117V119.262H189.985V110.734ZM205.117 108.498H207.275V132.054H205.117V108.498ZM188.528 126.958L188.243 125.138C189.785 125.138 191.423 125.129 193.157 125.112C194.89 125.077 196.649 125.017 198.435 124.93C200.22 124.826 201.936 124.679 203.583 124.488L203.765 126.074C202.049 126.334 200.298 126.533 198.513 126.672C196.745 126.793 195.011 126.871 193.312 126.906C191.631 126.941 190.037 126.958 188.528 126.958ZM218.036 122.824H219.726V124.202C219.726 125.225 219.518 126.239 219.102 127.244C218.686 128.232 218.08 129.116 217.282 129.896C216.502 130.676 215.54 131.283 214.396 131.716L213.33 130.104C214.318 129.74 215.159 129.246 215.852 128.622C216.563 127.981 217.1 127.279 217.464 126.516C217.846 125.736 218.036 124.965 218.036 124.202V122.824ZM218.504 122.824H220.116V124.202C220.116 124.999 220.272 125.797 220.584 126.594C220.896 127.374 221.364 128.093 221.988 128.752C222.612 129.393 223.401 129.913 224.354 130.312L223.418 131.924C222.292 131.473 221.364 130.841 220.636 130.026C219.908 129.211 219.371 128.301 219.024 127.296C218.678 126.273 218.504 125.242 218.504 124.202V122.824ZM226.72 122.824H228.332V124.202C228.332 125.121 228.159 126.091 227.812 127.114C227.466 128.119 226.928 129.055 226.2 129.922C225.472 130.789 224.545 131.456 223.418 131.924L222.508 130.312C223.444 129.861 224.224 129.289 224.848 128.596C225.472 127.903 225.94 127.166 226.252 126.386C226.564 125.606 226.72 124.878 226.72 124.202V122.824ZM227.162 122.824H228.826V124.202C228.826 125.017 229.008 125.814 229.372 126.594C229.754 127.374 230.291 128.067 230.984 128.674C231.695 129.281 232.553 129.757 233.558 130.104L232.466 131.716C231.322 131.3 230.352 130.711 229.554 129.948C228.774 129.185 228.176 128.31 227.76 127.322C227.362 126.334 227.162 125.294 227.162 124.202V122.824ZM223.6 114.4H229.814V116.168H223.6V114.4ZM218.452 109.824C219.596 109.824 220.619 110.058 221.52 110.526C222.439 110.994 223.158 111.644 223.678 112.476C224.198 113.308 224.458 114.261 224.458 115.336C224.458 116.428 224.198 117.39 223.678 118.222C223.158 119.037 222.439 119.678 221.52 120.146C220.619 120.614 219.596 120.848 218.452 120.848C217.291 120.848 216.251 120.614 215.332 120.146C214.431 119.678 213.72 119.037 213.2 118.222C212.68 117.39 212.42 116.428 212.42 115.336C212.42 114.261 212.68 113.308 213.2 112.476C213.72 111.644 214.431 110.994 215.332 110.526C216.251 110.058 217.291 109.824 218.452 109.824ZM218.452 111.644C217.69 111.644 217.005 111.8 216.398 112.112C215.809 112.424 215.341 112.866 214.994 113.438C214.648 113.993 214.474 114.625 214.474 115.336C214.474 116.064 214.648 116.705 214.994 117.26C215.341 117.815 215.809 118.257 216.398 118.586C217.005 118.898 217.69 119.054 218.452 119.054C219.198 119.054 219.865 118.898 220.454 118.586C221.061 118.257 221.538 117.815 221.884 117.26C222.231 116.705 222.404 116.064 222.404 115.336C222.404 114.625 222.231 113.993 221.884 113.438C221.538 112.866 221.061 112.424 220.454 112.112C219.865 111.8 219.198 111.644 218.452 111.644ZM229.216 108.498H231.374V121.914H229.216V108.498ZM238.626 122.616H240.758V125.32H252.276V122.616H254.408V131.716H238.626V122.616ZM240.758 127.01V129.974H252.276V127.01H240.758ZM235.948 119.21H257.19V120.978H235.948V119.21ZM245.464 108.758H247.336V109.824C247.336 110.639 247.163 111.41 246.816 112.138C246.47 112.849 245.993 113.507 245.386 114.114C244.797 114.703 244.104 115.232 243.306 115.7C242.526 116.168 241.677 116.558 240.758 116.87C239.857 117.182 238.921 117.416 237.95 117.572L237.144 115.856C237.994 115.735 238.817 115.544 239.614 115.284C240.429 115.024 241.192 114.712 241.902 114.348C242.613 113.967 243.237 113.542 243.774 113.074C244.312 112.589 244.728 112.077 245.022 111.54C245.317 110.985 245.464 110.413 245.464 109.824V108.758ZM245.828 108.758H247.674V109.824C247.674 110.396 247.822 110.959 248.116 111.514C248.428 112.051 248.853 112.563 249.39 113.048C249.928 113.516 250.543 113.941 251.236 114.322C251.947 114.703 252.701 115.033 253.498 115.31C254.313 115.57 255.136 115.752 255.968 115.856L255.188 117.572C254.218 117.416 253.273 117.182 252.354 116.87C251.453 116.558 250.604 116.168 249.806 115.7C249.026 115.215 248.333 114.669 247.726 114.062C247.137 113.455 246.669 112.797 246.322 112.086C245.993 111.375 245.828 110.621 245.828 109.824V108.758ZM276.974 108.498H279.106V132.028H276.974V108.498ZM261.348 110.812H263.48V125.372H261.348V110.812ZM261.348 124.098H263.272C265.075 124.098 266.904 124.02 268.758 123.864C270.63 123.691 272.554 123.405 274.53 123.006L274.816 124.826C272.771 125.259 270.804 125.563 268.914 125.736C267.025 125.892 265.144 125.97 263.272 125.97H261.348V124.098ZM299.696 108.498H301.854V132.054H299.696V108.498ZM301.36 117.78H305.702V119.574H301.36V117.78ZM284.798 124.358H286.644C288.083 124.358 289.4 124.341 290.596 124.306C291.81 124.254 292.971 124.167 294.08 124.046C295.207 123.925 296.351 123.76 297.512 123.552L297.772 125.398C296.559 125.606 295.38 125.771 294.236 125.892C293.11 126.013 291.931 126.091 290.7 126.126C289.47 126.161 288.118 126.178 286.644 126.178H284.798V124.358ZM284.798 110.786H295.692V112.554H286.93V125.19H284.798V110.786Z" fill="#0F0F10"/>
<path d="M101.32 152V140.727H102.688L108.805 149.5H108.93V140.727H110.32V152H108.953L102.836 143.258H102.711V152H101.32ZM113.195 152V140.727H120.039V141.992H114.602V145.867H119.594V147.117H114.602V152H113.195ZM126.891 152.266C123.828 152.266 121.914 150 121.914 146.375V146.359C121.914 142.727 123.82 140.461 126.883 140.461C129.258 140.461 131.109 141.953 131.445 144.117L131.438 144.133H130.023L130.016 144.117C129.641 142.672 128.438 141.758 126.883 141.758C124.719 141.758 123.359 143.539 123.359 146.359V146.375C123.359 149.195 124.719 150.969 126.891 150.969C128.461 150.969 129.656 150.164 130.008 148.867L130.023 148.852H131.445V148.867C131.07 150.93 129.289 152.266 126.891 152.266ZM138.243 148.56H139.171C139.939 148.56 140.617 148.555 141.203 148.544C141.79 148.523 142.339 148.485 142.851 148.432C143.374 148.368 143.907 148.288 144.451 148.192L144.579 149.296C144.025 149.392 143.481 149.472 142.947 149.536C142.414 149.589 141.843 149.627 141.235 149.648C140.638 149.669 139.95 149.68 139.171 149.68H138.243V148.56ZM138.243 140.432H143.939V141.52H139.507V148.976H138.243V140.432ZM139.123 144.256H143.715V145.312H139.123V144.256ZM148.691 138.768H149.971V153.248H148.691V138.768ZM146.387 144.576H149.171V145.664H146.387V144.576ZM145.507 139.072H146.771V152.512H145.507V139.072ZM153.81 140.304H163.122V141.392H153.81V140.304ZM152.386 150.032H165.458V151.136H152.386V150.032ZM162.402 140.304H163.714V141.76C163.714 142.368 163.703 143.019 163.682 143.712C163.671 144.395 163.629 145.152 163.554 145.984C163.479 146.816 163.351 147.755 163.17 148.8L161.826 148.656C162.018 147.675 162.151 146.773 162.226 145.952C162.311 145.131 162.359 144.373 162.37 143.68C162.391 142.987 162.402 142.347 162.402 141.76V140.304ZM167.089 145.488H180.209V146.512H167.089V145.488ZM168.657 147.664H178.577V150.752H170.001V152.448H168.689V149.84H177.265V148.624H168.657V147.664ZM168.689 152.096H179.041V153.056H168.689V152.096ZM168.753 139.2H178.529V142.208H170.097V143.776H168.785V141.312H177.217V140.144H168.753V139.2ZM168.785 143.456H178.785V144.416H168.785V143.456ZM186.947 145.216H187.859C188.627 145.216 189.299 145.211 189.875 145.2C190.462 145.179 191.011 145.141 191.523 145.088C192.035 145.024 192.558 144.939 193.091 144.832L193.235 145.92C192.681 146.027 192.137 146.112 191.603 146.176C191.081 146.229 190.521 146.267 189.923 146.288C189.326 146.299 188.638 146.304 187.859 146.304H186.947V145.216ZM186.947 139.648H192.531V140.72H188.227V146.016H186.947V139.648ZM187.827 142.384H192.371V143.44H187.827V142.384ZM197.251 138.784H198.515V146.992H197.251V138.784ZM194.963 142.272H197.699V143.376H194.963V142.272ZM194.051 139.056H195.299V146.88H194.051V139.056ZM189.027 147.568H190.339V149.168H197.219V147.568H198.515V153.056H189.027V147.568ZM190.339 150.224V151.968H197.219V150.224H190.339ZM201.01 141.248H208.194V142.336H201.01V141.248ZM204.61 143.296C205.218 143.296 205.752 143.435 206.21 143.712C206.68 143.989 207.048 144.379 207.314 144.88C207.581 145.371 207.714 145.941 207.714 146.592C207.714 147.243 207.581 147.819 207.314 148.32C207.048 148.811 206.68 149.2 206.21 149.488C205.752 149.765 205.218 149.904 204.61 149.904C204.013 149.904 203.48 149.765 203.01 149.488C202.541 149.2 202.173 148.811 201.906 148.32C201.64 147.819 201.506 147.243 201.506 146.592C201.506 145.941 201.64 145.371 201.906 144.88C202.173 144.389 202.541 144.005 203.01 143.728C203.48 143.44 204.013 143.296 204.61 143.296ZM204.61 144.416C204.248 144.416 203.917 144.512 203.618 144.704C203.33 144.885 203.101 145.141 202.93 145.472C202.77 145.792 202.69 146.165 202.69 146.592C202.69 147.019 202.77 147.397 202.93 147.728C203.101 148.059 203.33 148.315 203.618 148.496C203.917 148.677 204.248 148.768 204.61 148.768C204.984 148.768 205.314 148.677 205.602 148.496C205.89 148.315 206.114 148.059 206.274 147.728C206.445 147.397 206.53 147.019 206.53 146.592C206.53 146.165 206.445 145.792 206.274 145.472C206.114 145.141 205.89 144.885 205.602 144.704C205.314 144.512 204.984 144.416 204.61 144.416ZM212.018 138.768H213.282V153.248H212.018V138.768ZM209.698 144.864H212.434V145.952H209.698V144.864ZM208.914 139.104H210.162V152.544H208.914V139.104ZM203.954 139.2H205.266V141.904H203.954V139.2ZM221.553 140.208H222.705V140.816C222.705 141.328 222.604 141.813 222.401 142.272C222.198 142.731 221.916 143.157 221.553 143.552C221.19 143.936 220.769 144.277 220.289 144.576C219.809 144.875 219.292 145.131 218.737 145.344C218.193 145.547 217.628 145.696 217.041 145.792L216.529 144.736C217.041 144.672 217.537 144.555 218.017 144.384C218.508 144.203 218.966 143.989 219.393 143.744C219.82 143.499 220.193 143.221 220.513 142.912C220.844 142.603 221.1 142.272 221.281 141.92C221.462 141.557 221.553 141.189 221.553 140.816V140.208ZM221.889 140.208H223.041V140.816C223.041 141.189 223.132 141.557 223.313 141.92C223.494 142.272 223.745 142.603 224.065 142.912C224.396 143.221 224.774 143.499 225.201 143.744C225.628 143.989 226.081 144.203 226.561 144.384C227.052 144.555 227.553 144.672 228.065 144.736L227.569 145.792C226.982 145.696 226.412 145.547 225.857 145.344C225.302 145.131 224.785 144.875 224.305 144.576C223.825 144.277 223.404 143.936 223.041 143.552C222.678 143.157 222.396 142.731 222.193 142.272C221.99 141.813 221.889 141.328 221.889 140.816V140.208ZM221.617 147.728H222.929V153.232H221.617V147.728ZM215.761 147.008H228.833V148.096H215.761V147.008ZM216.993 139.664H227.585V140.736H216.993V139.664ZM236.176 143.952H238.96V145.056H236.176V143.952ZM233.488 140.128H234.528V142.896C234.528 143.643 234.448 144.379 234.288 145.104C234.138 145.829 233.914 146.512 233.616 147.152C233.328 147.792 232.976 148.368 232.56 148.88C232.144 149.392 231.674 149.808 231.152 150.128L230.32 149.136C230.81 148.837 231.253 148.464 231.648 148.016C232.042 147.568 232.373 147.067 232.64 146.512C232.917 145.947 233.125 145.36 233.264 144.752C233.413 144.133 233.488 143.515 233.488 142.896V140.128ZM233.744 140.128H234.768V142.848C234.768 143.424 234.832 144.005 234.96 144.592C235.098 145.168 235.29 145.723 235.536 146.256C235.792 146.779 236.106 147.259 236.48 147.696C236.853 148.133 237.274 148.496 237.744 148.784L236.992 149.808C236.469 149.488 236.005 149.083 235.6 148.592C235.194 148.091 234.853 147.531 234.576 146.912C234.298 146.283 234.09 145.621 233.952 144.928C233.813 144.235 233.744 143.541 233.744 142.848V140.128ZM241.504 138.768H242.784V153.248H241.504V138.768ZM238.56 139.072H239.808V152.512H238.56V139.072ZM248.414 146.224H249.726V150.544H248.414V146.224ZM253.758 146.224H255.086V150.544H253.758V146.224ZM245.198 150.288H258.318V151.392H245.198V150.288ZM251.726 139.68C252.75 139.68 253.657 139.835 254.446 140.144C255.236 140.453 255.854 140.885 256.302 141.44C256.761 141.995 256.99 142.651 256.99 143.408C256.99 144.155 256.761 144.811 256.302 145.376C255.854 145.931 255.236 146.363 254.446 146.672C253.657 146.971 252.75 147.12 251.726 147.12C250.713 147.12 249.806 146.971 249.006 146.672C248.217 146.363 247.598 145.931 247.15 145.376C246.702 144.811 246.478 144.155 246.478 143.408C246.478 142.651 246.702 141.995 247.15 141.44C247.598 140.885 248.217 140.453 249.006 140.144C249.806 139.835 250.713 139.68 251.726 139.68ZM251.726 140.736C250.958 140.736 250.276 140.848 249.678 141.072C249.081 141.296 248.612 141.611 248.27 142.016C247.929 142.411 247.758 142.875 247.758 143.408C247.758 143.941 247.929 144.411 248.27 144.816C248.612 145.211 249.081 145.52 249.678 145.744C250.276 145.968 250.958 146.08 251.726 146.08C252.505 146.08 253.193 145.968 253.79 145.744C254.388 145.52 254.857 145.211 255.198 144.816C255.54 144.411 255.71 143.941 255.71 143.408C255.71 142.875 255.54 142.411 255.198 142.016C254.857 141.611 254.388 141.296 253.79 141.072C253.193 140.848 252.505 140.736 251.726 140.736Z" fill="#383A3B"/>
<circle cx="179.5" cy="234" r="54" stroke="#007AFF" stroke-width="6"/>
<path d="M198.517 208.486H160.021C155.603 208.486 152.021 212.068 152.021 216.486V277.28C152.021 278.879 152.778 280.397 154.163 281.198C158.944 283.964 168.195 287.752 179.269 287.752C190.343 287.752 199.594 283.964 204.376 281.198C205.76 280.397 206.517 278.879 206.517 277.28V216.486C206.517 212.068 202.935 208.486 198.517 208.486Z" fill="#E0EFFE" stroke="#007AFF" stroke-width="3"/>
<path d="M164.792 208.486L166.773 211.954H191.544L193.525 208.486" stroke="#007AFF" stroke-width="4" stroke-linejoin="round"/>
<rect x="47" y="328" width="265" height="48" rx="24" fill="white" fill-opacity="0.6"/>
<path d="M47 352C47 338.745 57.7452 328 71 328H288C301.255 328 312 338.745 312 352V352C312 365.255 301.255 376 288 376H71C57.7452 376 47 365.255 47 352V352Z" fill="#0088FF"/>
<path d="M169.015 346.678H170.46V346.882C170.46 347.641 170.29 348.344 169.95 348.99C169.621 349.636 169.134 350.186 168.488 350.639C167.853 351.092 167.071 351.427 166.142 351.642L165.411 350.248C166.182 350.078 166.833 349.829 167.366 349.5C167.899 349.171 168.307 348.78 168.59 348.327C168.873 347.874 169.015 347.392 169.015 346.882V346.678ZM169.355 346.678H170.8V346.882C170.8 347.358 170.936 347.806 171.208 348.225C171.491 348.644 171.899 349.013 172.432 349.33C172.965 349.636 173.611 349.868 174.37 350.027L173.656 351.404C172.738 351.211 171.956 350.9 171.31 350.469C170.675 350.027 170.188 349.5 169.848 348.888C169.519 348.276 169.355 347.607 169.355 346.882V346.678ZM165.768 345.522H174.047V346.916H165.768V345.522ZM169.015 343.89H170.8V346.491H169.015V343.89ZM169.015 352.73H170.817V358.935H169.015V352.73ZM175.866 343.873H177.634V359.411H175.866V343.873ZM165.003 354.005L164.782 352.526C165.745 352.526 166.794 352.52 167.927 352.509C169.072 352.486 170.233 352.441 171.412 352.373C172.602 352.305 173.747 352.197 174.846 352.05L174.965 353.342C173.832 353.546 172.676 353.693 171.497 353.784C170.33 353.875 169.191 353.937 168.08 353.971C166.981 353.994 165.955 354.005 165.003 354.005ZM179.991 356.011H194.067V357.473H179.991V356.011ZM186.077 352.373H187.845V356.436H186.077V352.373ZM186.009 344.825H187.573V345.998C187.573 346.655 187.465 347.29 187.25 347.902C187.046 348.503 186.745 349.064 186.349 349.585C185.963 350.106 185.504 350.577 184.972 350.996C184.439 351.415 183.85 351.772 183.204 352.067C182.569 352.362 181.9 352.577 181.198 352.713L180.45 351.217C181.062 351.115 181.645 350.945 182.201 350.707C182.756 350.469 183.266 350.18 183.731 349.84C184.195 349.5 184.598 349.126 184.938 348.718C185.278 348.299 185.538 347.862 185.72 347.409C185.912 346.944 186.009 346.474 186.009 345.998V344.825ZM186.349 344.825H187.896V345.998C187.896 346.474 187.992 346.944 188.185 347.409C188.377 347.874 188.644 348.31 188.984 348.718C189.324 349.126 189.726 349.506 190.191 349.857C190.655 350.197 191.165 350.486 191.721 350.724C192.276 350.951 192.865 351.115 193.489 351.217L192.724 352.713C192.021 352.577 191.347 352.362 190.701 352.067C190.066 351.772 189.482 351.421 188.95 351.013C188.417 350.594 187.952 350.123 187.556 349.602C187.17 349.069 186.87 348.503 186.655 347.902C186.451 347.29 186.349 346.655 186.349 345.998V344.825Z" fill="white"/>
</g>
<defs>
<clipPath id="clip0_852_1988">
<rect width="359" height="425" fill="white"/>
</clipPath>
</defs>
</svg>
